<svg width="24" height="24" viewBox="0 0 24 24" fill="none" xmlns="http://www.w3.org/2000/svg">
<path d="M4.52051 11.8384C4.52118 11.7675 4.53782 11.7056 4.58105 11.6441L4.63379 11.5826L11.582 4.63434C11.6362 4.58117 11.6783 4.55549 11.707 4.54352H11.708C11.7444 4.5284 11.7844 4.52008 11.832 4.52008C11.8796 4.52011 11.9188 4.52871 11.9541 4.54352H11.9551C11.9836 4.55539 12.0259 4.58082 12.0801 4.63434L19.0283 11.5884C19.1186 11.6798 19.1445 11.7584 19.1445 11.8414C19.1445 11.9221 19.1199 11.9942 19.0342 12.0777L19.0293 12.0826L18.9688 12.1343C18.9091 12.1764 18.8511 12.191 18.7861 12.191C18.7215 12.191 18.6639 12.1762 18.6045 12.1343L18.5439 12.0826L12.1826 5.72125V19.1314C12.1826 19.2535 12.1474 19.3257 12.0869 19.3863V19.3873C12.026 19.4481 11.9531 19.483 11.8311 19.483C11.709 19.483 11.6361 19.4481 11.5752 19.3873V19.3863C11.5147 19.3257 11.4795 19.2535 11.4795 19.1314V5.72125L5.12402 12.0767C5.06267 12.138 5.00427 12.1698 4.93945 12.1822L4.87207 12.188C4.78212 12.189 4.70854 12.1628 4.62793 12.0826L4.62695 12.0816C4.54637 12.0015 4.51973 11.9281 4.52051 11.8384Z" fill="white" stroke="white"/>
</svg>
