<svg width="24" height="24" viewBox="0 0 24 24" fill="none" xmlns="http://www.w3.org/2000/svg">
<path d="M19.5 8.85254C19.4993 8.92349 19.4827 8.98534 19.4395 9.04687L19.3867 9.1084L12.4385 16.0566C12.3843 16.1098 12.3422 16.1355 12.3135 16.1475L12.3125 16.1475C12.2762 16.1626 12.2361 16.1709 12.1885 16.1709C12.1409 16.1709 12.1017 16.1623 12.0664 16.1475L12.0654 16.1475C12.037 16.1356 11.9946 16.1102 11.9404 16.0566L4.99219 9.10254C4.90192 9.01118 4.87598 8.93257 4.87598 8.84961C4.87606 8.76891 4.90059 8.69675 4.98633 8.61328L4.99121 8.6084L5.05176 8.55664C5.11136 8.51454 5.16942 8.50001 5.23437 8.5C5.29902 8.5 5.35665 8.51477 5.41602 8.55664L5.47656 8.6084L10.9873 14.1191L11.8379 14.957L12.1885 15.3018L12.5391 14.957L13.3916 14.1191L18.8965 8.61426C18.9578 8.55294 19.0162 8.52116 19.0811 8.50879L19.1484 8.50293C19.2384 8.50202 19.312 8.52818 19.3926 8.6084L19.3936 8.60937C19.4741 8.68952 19.5008 8.76288 19.5 8.85254Z" stroke="white"/>
</svg>
