<svg xmlns="http://www.w3.org/2000/svg" width="auto" height="auto" fill="inherit" viewBox="0 0 24 24"><path stroke="#fff" d="M19.5 8.853c0 .07-.017.132-.06.194l-.053.061-6.949 6.949a.4.4 0 0 1-.125.09.3.3 0 0 1-.125.024.3.3 0 0 1-.122-.023.4.4 0 0 1-.126-.091L4.992 9.103c-.09-.092-.116-.17-.116-.253 0-.081.025-.153.11-.237l.005-.005.06-.051a.3.3 0 0 1 .183-.057c.065 0 .123.015.182.057l.06.051 5.511 5.511.85.838.351.345.351-.345.853-.838 5.505-5.505a.35.35 0 0 1 .184-.105l.067-.006c.09-.001.164.025.245.105v.001c.081.08.108.154.107.244Z"/></svg>