<svg width="24" height="24" viewBox="0 0 24 24" fill="none" xmlns="http://www.w3.org/2000/svg">
<path d="M12.0205 18.994C11.779 18.994 11.5774 18.9122 11.4157 18.7485C11.254 18.5848 11.1732 18.3828 11.1732 18.1425V11H5.71795C5.42445 11 5.19045 10.8819 5.01595 10.6457C4.84145 10.4094 4.80187 10.1567 4.8972 9.88749L7.01145 3.01999C7.12912 2.66366 7.33945 2.37466 7.64245 2.15299C7.94545 1.93149 8.2842 1.82074 8.6587 1.82074H15.3912C15.7657 1.82074 16.1045 1.93149 16.4075 2.15299C16.7105 2.37466 16.9208 2.66366 17.0385 3.01999L19.1587 9.88749C19.25 10.1567 19.2085 10.4094 19.034 10.6457C18.8595 10.8819 18.6255 11 18.332 11H12.8767V18.1425C12.8767 18.3828 12.7944 18.5848 12.6297 18.7485C12.4652 18.9122 12.2621 18.994 12.0205 18.994ZM6.85545 9.29074H17.1945L15.4162 3.52399H8.6337L6.85545 9.29074ZM9.02495 22.2032C8.78462 22.2032 8.58262 22.121 8.41895 21.9565C8.25512 21.792 8.1732 21.5869 8.1732 21.3412C8.1732 21.0996 8.25512 20.898 8.41895 20.7365C8.58262 20.5748 8.78462 20.494 9.02495 20.494H15.025C15.2653 20.494 15.4673 20.5762 15.631 20.7407C15.7948 20.9052 15.8767 21.1083 15.8767 21.35C15.8767 21.5957 15.7948 21.7992 15.631 21.9607C15.4673 22.1224 15.2653 22.2032 15.025 22.2032H9.02495Z" fill="white"/>
</svg>
