<svg xmlns="http://www.w3.org/2000/svg" style="display:none">
  <symbol id="facebook" viewBox="0 0 24 24" fill="currentColor">
    <path d="M22 12.3038C22 6.74719 17.5229 2.24268 12 2.24268C6.47715 2.24268 2 6.74719 2 12.3038C2 17.3255 5.65684 21.4879 10.4375 22.2427V15.2121H7.89844V12.3038H10.4375V10.0872C10.4375 7.56564 11.9305 6.1728 14.2146 6.1728C15.3088 6.1728 16.4531 6.36931 16.4531 6.36931V8.84529H15.1922C13.95 8.84529 13.5625 9.6209 13.5625 10.4166V12.3038H16.3359L15.8926 15.2121H13.5625V22.2427C18.3432 21.4879 22 17.3257 22 12.3038Z"/>
  </symbol>
  <symbol id="instagram" viewBox="0 0 24 24" fill="currentColor">
    <path d="M11.9988 4.62091C14.4032 4.62091 14.6878 4.63159 15.6332 4.67378C16.5123 4.71258 16.9864 4.85994 17.303 4.98311C17.7215 5.14509 18.0235 5.34194 18.3362 5.65465C18.6528 5.97129 18.8458 6.26994 19.0111 6.68838C19.1343 7.00503 19.2816 7.48253 19.3204 8.35822C19.3626 9.3076 19.3733 9.59218 19.3733 11.9932C19.3733 14.3942 19.3626 14.6821 19.3204 15.6281C19.2816 16.5072 19.1343 16.9813 19.0111 17.298C18.8491 17.7164 18.6528 18.0184 18.3396 18.3311C18.0229 18.6478 17.7243 18.8407 17.3064 19.0061C16.9898 19.1292 16.5117 19.2766 15.6366 19.3154C14.6872 19.3576 14.4026 19.3683 12.0016 19.3683C9.60062 19.3683 9.31266 19.3576 8.36666 19.3154C7.48759 19.2766 7.01346 19.1292 6.69682 19.0061C6.27838 18.8441 5.97635 18.6478 5.66308 18.3345C5.34644 18.0179 5.15353 17.7192 4.98817 17.3013C4.865 16.9847 4.71765 16.5066 4.67884 15.6315C4.63666 14.6821 4.62597 14.3975 4.62597 11.9965C4.62597 9.59556 4.63666 9.3076 4.67884 8.3616C4.71765 7.48253 4.865 7.0084 4.98817 6.69176C5.15015 6.27331 5.347 5.97129 5.65971 5.65802C5.97635 5.34137 6.275 5.14846 6.69344 4.98311C7.01009 4.85994 7.48759 4.71258 8.36328 4.67378C9.30872 4.63159 9.59387 4.62091 11.9982 4.62091H11.9988ZM11.9988 3.00056C9.55563 3.00056 9.25023 3.01125 8.29017 3.05343C7.33405 3.09561 6.67657 3.25028 6.1074 3.47187C5.51348 3.70359 5.01067 4.00955 4.5118 4.51236C4.00899 5.01179 3.70303 5.51404 3.47131 6.10459C3.24972 6.6777 3.09505 7.33123 3.05287 8.28736C3.01069 9.25079 3 9.55619 3 11.9994C3 14.4425 3.01069 14.7479 3.05287 15.708C3.09505 16.6641 3.24972 17.3216 3.47131 17.8908C3.70359 18.4847 4.00899 18.9875 4.5118 19.4864C5.01067 19.9852 5.51348 20.2951 6.10402 20.5235C6.67713 20.7451 7.33067 20.8997 8.28679 20.9419C9.24629 20.9841 9.55225 20.9948 11.9954 20.9948C14.4386 20.9948 14.7446 20.9841 15.7041 20.9419C16.6602 20.8997 17.3177 20.7451 17.8868 20.5235C18.4774 20.2951 18.9802 19.9858 19.4791 19.4864C19.9779 18.9869 20.2878 18.4847 20.5162 17.8941C20.7378 17.321 20.8924 16.6675 20.9346 15.7114C20.9768 14.7519 20.9875 14.4459 20.9875 12.0027C20.9875 9.55956 20.9768 9.25417 20.9346 8.29411C20.8924 7.33798 20.7378 6.68051 20.5162 6.11133C20.2946 5.51348 19.9886 5.01123 19.4864 4.5118C18.9875 4.01293 18.4847 3.70303 17.8941 3.47469C17.321 3.25309 16.6675 3.09842 15.7114 3.05624C14.7485 3.01069 14.4425 3 11.9994 3L11.9988 3.00056Z"/>
<path d="M11.9985 7.37671C9.44683 7.37671 7.37598 9.447 7.37598 11.9993C7.37598 14.5516 9.44626 16.6219 11.9985 16.6219C14.5508 16.6219 16.6211 14.5516 16.6211 11.9993C16.6211 9.44756 14.5508 7.37671 11.9985 7.37671ZM11.9985 14.9976C10.3428 14.9976 9.00026 13.6551 9.00026 11.9993C9.00026 10.3435 10.3428 9.00099 11.9985 9.00099C13.6543 9.00099 14.9968 10.3435 14.9968 11.9993C14.9968 13.6551 13.6543 14.9976 11.9985 14.9976Z"/>
<path d="M17.8822 7.19404C17.8822 7.79021 17.3991 8.27333 16.8029 8.27333C16.2068 8.27333 15.7236 7.79021 15.7236 7.19404C15.7236 6.59787 16.2068 6.11475 16.8029 6.11475C17.3991 6.11475 17.8822 6.59787 17.8822 7.19404Z"/>
  </symbol>
  <symbol id="arrow_back" viewBox="0 0 24 24">
    <path d="M12.0078 4.68652C12.0934 4.68658 12.1668 4.71285 12.249 4.79492C12.3313 4.88086 12.3574 4.95797 12.3574 5.04395C12.3573 5.13078 12.3308 5.20478 12.249 5.28711L5.8877 11.6484H19.2979C19.4194 11.6485 19.4945 11.6838 19.5586 11.7471C19.6207 11.8084 19.6553 11.8801 19.6553 12C19.6553 12.1199 19.6207 12.1916 19.5586 12.2529C19.4945 12.3162 19.4194 12.3515 19.2979 12.3516H5.8877L12.2432 18.707V18.7061C12.3254 18.7885 12.3537 18.8653 12.3545 18.957V18.958C12.355 19.0245 12.3404 19.0829 12.2988 19.1426L12.2471 19.2041C12.1671 19.2851 12.0939 19.3113 12.0049 19.3105C11.9104 19.3096 11.8321 19.2796 11.749 19.1973L4.80078 12.249C4.74762 12.1949 4.72192 12.1527 4.70996 12.124V12.123C4.69485 12.0867 4.68652 12.0466 4.68652 11.999C4.68655 11.9514 4.69516 11.9123 4.70996 11.877V11.876C4.72183 11.8475 4.74729 11.8051 4.80078 11.751L11.751 4.80078C11.8414 4.71356 11.9211 4.68652 12.0078 4.68652Z" stroke="white"/>
  </symbol>
  <symbol id="arrow_forward" viewBox="0 0 24 24">
    <path d="M11.9951 4.68945C12.0661 4.69012 12.1279 4.70677 12.1895 4.75L12.251 4.80273L19.1992 11.751C19.2524 11.8051 19.2781 11.8473 19.29 11.876V11.877C19.3052 11.9133 19.3135 11.9534 19.3135 12.001C19.3134 12.0486 19.3048 12.0877 19.29 12.123V12.124C19.2782 12.1525 19.2527 12.1948 19.1992 12.249L12.2451 19.1973C12.1538 19.2875 12.0752 19.3135 11.9922 19.3135C11.9115 19.3134 11.8393 19.2889 11.7559 19.2031L11.751 19.1982L11.6992 19.1377C11.6571 19.0781 11.6426 19.02 11.6426 18.9551C11.6426 18.8904 11.6573 18.8328 11.6992 18.7734L11.751 18.7129L18.1123 12.3516H4.70215C4.58005 12.3515 4.50781 12.3164 4.44727 12.2559H4.44629C4.38542 12.195 4.35059 12.122 4.35059 12C4.35059 11.878 4.38542 11.805 4.44629 11.7441H4.44727C4.50782 11.6836 4.58005 11.6485 4.70215 11.6484H18.1123L11.7568 5.29297C11.6955 5.23162 11.6637 5.17322 11.6514 5.1084L11.6455 5.04102C11.6446 4.95107 11.6708 4.87748 11.751 4.79688L11.752 4.7959C11.8321 4.71531 11.9055 4.68868 11.9951 4.68945Z" stroke="white"/>
  </symbol>
  <symbol id="arrow_top" viewBox="0 0 24 24">
    <path d="M4.52051 11.8384C4.52118 11.7675 4.53782 11.7056 4.58105 11.6441L4.63379 11.5826L11.582 4.63434C11.6362 4.58117 11.6783 4.55549 11.707 4.54352H11.708C11.7444 4.5284 11.7844 4.52008 11.832 4.52008C11.8796 4.52011 11.9188 4.52871 11.9541 4.54352H11.9551C11.9836 4.55539 12.0259 4.58082 12.0801 4.63434L19.0283 11.5884C19.1186 11.6798 19.1445 11.7584 19.1445 11.8414C19.1445 11.9221 19.1199 11.9942 19.0342 12.0777L19.0293 12.0826L18.9688 12.1343C18.9091 12.1764 18.8511 12.191 18.7861 12.191C18.7215 12.191 18.6639 12.1762 18.6045 12.1343L18.5439 12.0826L12.1826 5.72125V19.1314C12.1826 19.2535 12.1474 19.3257 12.0869 19.3863V19.3873C12.026 19.4481 11.9531 19.483 11.8311 19.483C11.709 19.483 11.6361 19.4481 11.5752 19.3873V19.3863C11.5147 19.3257 11.4795 19.2535 11.4795 19.1314V5.72125L5.12402 12.0767C5.06267 12.138 5.00427 12.1698 4.93945 12.1822L4.87207 12.188C4.78212 12.189 4.70854 12.1628 4.62793 12.0826L4.62695 12.0816C4.54637 12.0015 4.51973 11.9281 4.52051 11.8384Z" stroke="white"/>
  </symbol>
  <symbol id="call" viewBox="0 0 24 24">
    <path d="M4.11914 3.34473H7.61914C7.80287 3.34474 7.9305 3.39945 8.03516 3.49805C8.12866 3.58614 8.20717 3.70059 8.26562 3.85156L8.31738 4.01465L8.98242 7.02832C9.01509 7.26011 9.00757 7.44511 8.97266 7.5918C8.94151 7.72276 8.87973 7.83104 8.78027 7.92578L8.77344 7.93164L6.25586 10.415L5.97656 10.6904L6.17676 11.0264C6.60349 11.7435 7.05697 12.416 7.53711 13.042C8.01993 13.6715 8.55611 14.2696 9.14453 14.8369C9.75791 15.4701 10.3991 16.0453 11.0684 16.5605C11.7435 17.0804 12.449 17.5353 13.1846 17.9248L13.5156 18.0996L13.7764 17.832L16.1816 15.3643L16.1914 15.3535C16.331 15.2021 16.4776 15.111 16.6338 15.0645C16.7648 15.0256 16.8946 15.012 17.0254 15.0215L17.1572 15.0391L19.9775 15.6631C20.1433 15.7092 20.2751 15.7806 20.3818 15.875L20.4814 15.9775C20.5982 16.1186 20.6553 16.2764 20.6553 16.4707V19.8809C20.6553 20.1178 20.5811 20.2895 20.4375 20.4316C20.2911 20.5766 20.1182 20.6494 19.8867 20.6494C18.0116 20.6494 16.0913 20.1991 14.1221 19.2842C12.1539 18.3698 10.323 17.0691 8.62988 15.376C7.04282 13.7889 5.79979 12.0798 4.89551 10.249L4.71875 9.88086C3.80172 7.90938 3.35059 5.99008 3.35059 4.11914C3.3506 3.94128 3.39186 3.79881 3.47363 3.67773L3.56934 3.56348C3.71339 3.41863 3.88514 3.34473 4.11914 3.34473ZM4.06641 4.5752C4.09734 5.28818 4.20935 6.0365 4.39941 6.81836C4.59098 7.60639 4.8907 8.47618 5.29492 9.4248L5.58398 10.1035L6.10742 9.58301L8.12695 7.5752L8.32031 7.38281L8.2627 7.11621L7.69434 4.44922L7.60938 4.05371H4.04395L4.06641 4.5752ZM19.9463 16.377L19.5479 16.2949L17.0625 15.7803L16.791 15.7246L16.5986 15.9248L14.6357 17.9824L14.1543 18.4863L14.7871 18.7812C15.482 19.1045 16.2354 19.3664 17.0449 19.5693C17.8556 19.7725 18.6478 19.8945 19.4209 19.9336L19.9463 19.96V16.377Z" stroke="white"/>
  </symbol>
  <symbol id="chevron_down" viewBox="0 0 24 24">
    <path d="M19.5 8.85254C19.4993 8.92349 19.4827 8.98534 19.4395 9.04687L19.3867 9.1084L12.4385 16.0566C12.3843 16.1098 12.3422 16.1355 12.3135 16.1475L12.3125 16.1475C12.2762 16.1626 12.2361 16.1709 12.1885 16.1709C12.1409 16.1709 12.1017 16.1623 12.0664 16.1475L12.0654 16.1475C12.037 16.1356 11.9946 16.1102 11.9404 16.0566L4.99219 9.10254C4.90192 9.01118 4.87598 8.93257 4.87598 8.84961C4.87606 8.76891 4.90059 8.69675 4.98633 8.61328L4.99121 8.6084L5.05176 8.55664C5.11136 8.51454 5.16942 8.50001 5.23437 8.5C5.29902 8.5 5.35665 8.51477 5.41602 8.55664L5.47656 8.6084L10.9873 14.1191L11.8379 14.957L12.1885 15.3018L12.5391 14.957L13.3916 14.1191L18.8965 8.61426C18.9578 8.55294 19.0162 8.52116 19.0811 8.50879L19.1484 8.50293C19.2384 8.50202 19.312 8.52818 19.3926 8.6084L19.3936 8.60937C19.4741 8.68952 19.5008 8.76288 19.5 8.85254Z" stroke="white"/>
  </symbol>
  <symbol id="close" viewBox="0 0 24 24">
    <path d="M17.5996 5.92499C17.7639 5.92499 17.8659 5.97349 17.9463 6.05389C18.0265 6.1342 18.0751 6.23569 18.0752 6.3996C18.0752 6.5638 18.0266 6.66589 17.9463 6.74628L12.6924 12.0002L13.0459 12.3537L17.9463 17.2531C18.0267 17.3335 18.0752 17.4356 18.0752 17.5998C18.0752 17.7641 18.0267 17.8661 17.9463 17.9465C17.8659 18.0269 17.7639 18.0754 17.5996 18.0754C17.4355 18.0753 17.3333 18.0268 17.2529 17.9465L12.3535 13.0461L12 12.6926L6.74609 17.9465C6.66571 18.0268 6.56362 18.0754 6.39941 18.0754C6.23551 18.0753 6.13402 18.0267 6.05371 17.9465C5.97331 17.8661 5.9248 17.7641 5.9248 17.5998C5.92484 17.4356 5.97334 17.3335 6.05371 17.2531L11.3066 12.0002L10.9531 11.6467L6.05371 6.74628C5.97331 6.66587 5.9248 6.56387 5.9248 6.3996C5.92488 6.23556 5.97337 6.13423 6.05371 6.05389C6.13405 5.97356 6.23537 5.92506 6.39941 5.92499C6.56368 5.92499 6.66569 5.97349 6.74609 6.05389L11.6465 10.9533L12 11.3068L17.2529 6.05389C17.3333 5.97352 17.4355 5.92503 17.5996 5.92499Z" stroke="white"/>
  </symbol>
  <symbol id="cp-sprite" viewBox="0 0 24 24" fill="currentColor">
    <symbol id="facebook" viewBox="0 0 24 24">
    <path d="M22 12.3038C22 6.74719 17.5229 2.24268 12 2.24268C6.47715 2.24268 2 6.74719 2 12.3038C2 17.3255 5.65684 21.4879 10.4375 22.2427V15.2121H7.89844V12.3038H10.4375V10.0872C10.4375 7.56564 11.9305 6.1728 14.2146 6.1728C15.3088 6.1728 16.4531 6.36931 16.4531 6.36931V8.84529H15.1922C13.95 8.84529 13.5625 9.6209 13.5625 10.4166V12.3038H16.3359L15.8926 15.2121H13.5625V22.2427C18.3432 21.4879 22 17.3257 22 12.3038Z"/>
  </symbol>
  <symbol id="instagram" viewBox="0 0 24 24">
    <path d="M11.9988 4.62091C14.4032 4.62091 14.6878 4.63159 15.6332 4.67378C16.5123 4.71258 16.9864 4.85994 17.303 4.98311C17.7215 5.14509 18.0235 5.34194 18.3362 5.65465C18.6528 5.97129 18.8458 6.26994 19.0111 6.68838C19.1343 7.00503 19.2816 7.48253 19.3204 8.35822C19.3626 9.3076 19.3733 9.59218 19.3733 11.9932C19.3733 14.3942 19.3626 14.6821 19.3204 15.6281C19.2816 16.5072 19.1343 16.9813 19.0111 17.298C18.8491 17.7164 18.6528 18.0184 18.3396 18.3311C18.0229 18.6478 17.7243 18.8407 17.3064 19.0061C16.9898 19.1292 16.5117 19.2766 15.6366 19.3154C14.6872 19.3576 14.4026 19.3683 12.0016 19.3683C9.60062 19.3683 9.31266 19.3576 8.36666 19.3154C7.48759 19.2766 7.01346 19.1292 6.69682 19.0061C6.27838 18.8441 5.97635 18.6478 5.66308 18.3345C5.34644 18.0179 5.15353 17.7192 4.98817 17.3013C4.865 16.9847 4.71765 16.5066 4.67884 15.6315C4.63666 14.6821 4.62597 14.3975 4.62597 11.9965C4.62597 9.59556 4.63666 9.3076 4.67884 8.3616C4.71765 7.48253 4.865 7.0084 4.98817 6.69176C5.15015 6.27331 5.347 5.97129 5.65971 5.65802C5.97635 5.34137 6.275 5.14846 6.69344 4.98311C7.01009 4.85994 7.48759 4.71258 8.36328 4.67378C9.30872 4.63159 9.59387 4.62091 11.9982 4.62091H11.9988ZM11.9988 3.00056C9.55563 3.00056 9.25023 3.01125 8.29017 3.05343C7.33405 3.09561 6.67657 3.25028 6.1074 3.47187C5.51348 3.70359 5.01067 4.00955 4.5118 4.51236C4.00899 5.01179 3.70303 5.51404 3.47131 6.10459C3.24972 6.6777 3.09505 7.33123 3.05287 8.28736C3.01069 9.25079 3 9.55619 3 11.9994C3 14.4425 3.01069 14.7479 3.05287 15.708C3.09505 16.6641 3.24972 17.3216 3.47131 17.8908C3.70359 18.4847 4.00899 18.9875 4.5118 19.4864C5.01067 19.9852 5.51348 20.2951 6.10402 20.5235C6.67713 20.7451 7.33067 20.8997 8.28679 20.9419C9.24629 20.9841 9.55225 20.9948 11.9954 20.9948C14.4386 20.9948 14.7446 20.9841 15.7041 20.9419C16.6602 20.8997 17.3177 20.7451 17.8868 20.5235C18.4774 20.2951 18.9802 19.9858 19.4791 19.4864C19.9779 18.9869 20.2878 18.4847 20.5162 17.8941C20.7378 17.321 20.8924 16.6675 20.9346 15.7114C20.9768 14.7519 20.9875 14.4459 20.9875 12.0027C20.9875 9.55956 20.9768 9.25417 20.9346 8.29411C20.8924 7.33798 20.7378 6.68051 20.5162 6.11133C20.2946 5.51348 19.9886 5.01123 19.4864 4.5118C18.9875 4.01293 18.4847 3.70303 17.8941 3.47469C17.321 3.25309 16.6675 3.09842 15.7114 3.05624C14.7485 3.01069 14.4425 3 11.9994 3L11.9988 3.00056Z"/>
    <path d="M11.9985 7.37671C9.44683 7.37671 7.37598 9.447 7.37598 11.9993C7.37598 14.5516 9.44626 16.6219 11.9985 16.6219C14.5508 16.6219 16.6211 14.5516 16.6211 11.9993C16.6211 9.44756 14.5508 7.37671 11.9985 7.37671ZM11.9985 14.9976C10.3428 14.9976 9.00026 13.6551 9.00026 11.9993C9.00026 10.3435 10.3428 9.00099 11.9985 9.00099C13.6543 9.00099 14.9968 10.3435 14.9968 11.9993C14.9968 13.6551 13.6543 14.9976 11.9985 14.9976Z"/>
    <path d="M17.8822 7.19404C17.8822 7.79021 17.3991 8.27333 16.8029 8.27333C16.2068 8.27333 15.7236 7.79021 15.7236 7.19404C15.7236 6.59787 16.2068 6.11475 16.8029 6.11475C17.3991 6.11475 17.8822 6.59787 17.8822 7.19404Z"/>
  </symbol>
  <symbol id="arrow_back" viewBox="0 0 24 24">
    <path d="M12.0078 4.68652C12.0934 4.68658 12.1668 4.71285 12.249 4.79492C12.3313 4.88086 12.3574 4.95797 12.3574 5.04395C12.3573 5.13078 12.3308 5.20478 12.249 5.28711L5.8877 11.6484H19.2979C19.4194 11.6485 19.4945 11.6838 19.5586 11.7471C19.6207 11.8084 19.6553 11.8801 19.6553 12C19.6553 12.1199 19.6207 12.1916 19.5586 12.2529C19.4945 12.3162 19.4194 12.3515 19.2979 12.3516H5.8877L12.2432 18.707V18.7061C12.3254 18.7885 12.3537 18.8653 12.3545 18.957V18.958C12.355 19.0245 12.3404 19.0829 12.2988 19.1426L12.2471 19.2041C12.1671 19.2851 12.0939 19.3113 12.0049 19.3105C11.9104 19.3096 11.8321 19.2796 11.749 19.1973L4.80078 12.249C4.74762 12.1949 4.72192 12.1527 4.70996 12.124V12.123C4.69485 12.0867 4.68652 12.0466 4.68652 11.999C4.68655 11.9514 4.69516 11.9123 4.70996 11.877V11.876C4.72183 11.8475 4.74729 11.8051 4.80078 11.751L11.751 4.80078C11.8414 4.71356 11.9211 4.68652 12.0078 4.68652Z" stroke="white"/>
  </symbol>
  <symbol id="arrow_forward" viewBox="0 0 24 24">
    <path d="M11.9951 4.68945C12.0661 4.69012 12.1279 4.70677 12.1895 4.75L12.251 4.80273L19.1992 11.751C19.2524 11.8051 19.2781 11.8473 19.29 11.876V11.877C19.3052 11.9133 19.3135 11.9534 19.3135 12.001C19.3134 12.0486 19.3048 12.0877 19.29 12.123V12.124C19.2782 12.1525 19.2527 12.1948 19.1992 12.249L12.2451 19.1973C12.1538 19.2875 12.0752 19.3135 11.9922 19.3135C11.9115 19.3134 11.8393 19.2889 11.7559 19.2031L11.751 19.1982L11.6992 19.1377C11.6571 19.0781 11.6426 19.02 11.6426 18.9551C11.6426 18.8904 11.6573 18.8328 11.6992 18.7734L11.751 18.7129L18.1123 12.3516H4.70215C4.58005 12.3515 4.50781 12.3164 4.44727 12.2559H4.44629C4.38542 12.195 4.35059 12.122 4.35059 12C4.35059 11.878 4.38542 11.805 4.44629 11.7441H4.44727C4.50782 11.6836 4.58005 11.6485 4.70215 11.6484H18.1123L11.7568 5.29297C11.6955 5.23162 11.6637 5.17322 11.6514 5.1084L11.6455 5.04102C11.6446 4.95107 11.6708 4.87748 11.751 4.79688L11.752 4.7959C11.8321 4.71531 11.9055 4.68868 11.9951 4.68945Z" stroke="white"/>
  </symbol>
  <symbol id="arrow_top" viewBox="0 0 24 24">
    <path d="M4.52051 11.8384C4.52118 11.7675 4.53782 11.7056 4.58105 11.6441L4.63379 11.5826L11.582 4.63434C11.6362 4.58117 11.6783 4.55549 11.707 4.54352H11.708C11.7444 4.5284 11.7844 4.52008 11.832 4.52008C11.8796 4.52011 11.9188 4.52871 11.9541 4.54352H11.9551C11.9836 4.55539 12.0259 4.58082 12.0801 4.63434L19.0283 11.5884C19.1186 11.6798 19.1445 11.7584 19.1445 11.8414C19.1445 11.9221 19.1199 11.9942 19.0342 12.0777L19.0293 12.0826L18.9688 12.1343C18.9091 12.1764 18.8511 12.191 18.7861 12.191C18.7215 12.191 18.6639 12.1762 18.6045 12.1343L18.5439 12.0826L12.1826 5.72125V19.1314C12.1826 19.2535 12.1474 19.3257 12.0869 19.3863V19.3873C12.026 19.4481 11.9531 19.483 11.8311 19.483C11.709 19.483 11.6361 19.4481 11.5752 19.3873V19.3863C11.5147 19.3257 11.4795 19.2535 11.4795 19.1314V5.72125L5.12402 12.0767C5.06267 12.138 5.00427 12.1698 4.93945 12.1822L4.87207 12.188C4.78212 12.189 4.70854 12.1628 4.62793 12.0826L4.62695 12.0816C4.54637 12.0015 4.51973 11.9281 4.52051 11.8384Z" stroke="white"/>
  </symbol>
  <symbol id="call" viewBox="0 0 24 24">
    <path d="M4.11914 3.34473H7.61914C7.80287 3.34474 7.9305 3.39945 8.03516 3.49805C8.12866 3.58614 8.20717 3.70059 8.26562 3.85156L8.31738 4.01465L8.98242 7.02832C9.01509 7.26011 9.00757 7.44511 8.97266 7.5918C8.94151 7.72276 8.87973 7.83104 8.78027 7.92578L8.77344 7.93164L6.25586 10.415L5.97656 10.6904L6.17676 11.0264C6.60349 11.7435 7.05697 12.416 7.53711 13.042C8.01993 13.6715 8.55611 14.2696 9.14453 14.8369C9.75791 15.4701 10.3991 16.0453 11.0684 16.5605C11.7435 17.0804 12.449 17.5353 13.1846 17.9248L13.5156 18.0996L13.7764 17.832L16.1816 15.3643L16.1914 15.3535C16.331 15.2021 16.4776 15.111 16.6338 15.0645C16.7648 15.0256 16.8946 15.012 17.0254 15.0215L17.1572 15.0391L19.9775 15.6631C20.1433 15.7092 20.2751 15.7806 20.3818 15.875L20.4814 15.9775C20.5982 16.1186 20.6553 16.2764 20.6553 16.4707V19.8809C20.6553 20.1178 20.5811 20.2895 20.4375 20.4316C20.2911 20.5766 20.1182 20.6494 19.8867 20.6494C18.0116 20.6494 16.0913 20.1991 14.1221 19.2842C12.1539 18.3698 10.323 17.0691 8.62988 15.376C7.04282 13.7889 5.79979 12.0798 4.89551 10.249L4.71875 9.88086C3.80172 7.90938 3.35059 5.99008 3.35059 4.11914C3.3506 3.94128 3.39186 3.79881 3.47363 3.67773L3.56934 3.56348C3.71339 3.41863 3.88514 3.34473 4.11914 3.34473ZM4.06641 4.5752C4.09734 5.28818 4.20935 6.0365 4.39941 6.81836C4.59098 7.60639 4.8907 8.47618 5.29492 9.4248L5.58398 10.1035L6.10742 9.58301L8.12695 7.5752L8.32031 7.38281L8.2627 7.11621L7.69434 4.44922L7.60938 4.05371H4.04395L4.06641 4.5752ZM19.9463 16.377L19.5479 16.2949L17.0625 15.7803L16.791 15.7246L16.5986 15.9248L14.6357 17.9824L14.1543 18.4863L14.7871 18.7812C15.482 19.1045 16.2354 19.3664 17.0449 19.5693C17.8556 19.7725 18.6478 19.8945 19.4209 19.9336L19.9463 19.96V16.377Z" stroke="white"/>
  </symbol>
  <symbol id="chevron_down" viewBox="0 0 24 24">
    <path d="M19.5 8.85254C19.4993 8.92349 19.4827 8.98534 19.4395 9.04687L19.3867 9.1084L12.4385 16.0566C12.3843 16.1098 12.3422 16.1355 12.3135 16.1475L12.3125 16.1475C12.2762 16.1626 12.2361 16.1709 12.1885 16.1709C12.1409 16.1709 12.1017 16.1623 12.0664 16.1475L12.0654 16.1475C12.037 16.1356 11.9946 16.1102 11.9404 16.0566L4.99219 9.10254C4.90192 9.01118 4.87598 8.93257 4.87598 8.84961C4.87606 8.76891 4.90059 8.69675 4.98633 8.61328L4.99121 8.6084L5.05176 8.55664C5.11136 8.51454 5.16942 8.50001 5.23437 8.5C5.29902 8.5 5.35665 8.51477 5.41602 8.55664L5.47656 8.6084L10.9873 14.1191L11.8379 14.957L12.1885 15.3018L12.5391 14.957L13.3916 14.1191L18.8965 8.61426C18.9578 8.55294 19.0162 8.52116 19.0811 8.50879L19.1484 8.50293C19.2384 8.50202 19.312 8.52818 19.3926 8.6084L19.3936 8.60937C19.4741 8.68952 19.5008 8.76288 19.5 8.85254Z" stroke="white"/>
  </symbol>
  <symbol id="close" viewBox="0 0 24 24">
    <path d="M17.5996 5.92499C17.7639 5.92499 17.8659 5.97349 17.9463 6.05389C18.0265 6.1342 18.0751 6.23569 18.0752 6.3996C18.0752 6.5638 18.0266 6.66589 17.9463 6.74628L12.6924 12.0002L13.0459 12.3537L17.9463 17.2531C18.0267 17.3335 18.0752 17.4356 18.0752 17.5998C18.0752 17.7641 18.0267 17.8661 17.9463 17.9465C17.8659 18.0269 17.7639 18.0754 17.5996 18.0754C17.4355 18.0753 17.3333 18.0268 17.2529 17.9465L12.3535 13.0461L12 12.6926L6.74609 17.9465C6.66571 18.0268 6.56362 18.0754 6.39941 18.0754C6.23551 18.0753 6.13402 18.0267 6.05371 17.9465C5.97331 17.8661 5.9248 17.7641 5.9248 17.5998C5.92484 17.4356 5.97334 17.3335 6.05371 17.2531L11.3066 12.0002L10.9531 11.6467L6.05371 6.74628C5.97331 6.66587 5.9248 6.56387 5.9248 6.3996C5.92488 6.23556 5.97337 6.13423 6.05371 6.05389C6.13405 5.97356 6.23537 5.92506 6.39941 5.92499C6.56368 5.92499 6.66569 5.97349 6.74609 6.05389L11.6465 10.9533L12 11.3068L17.2529 6.05389C17.3333 5.97352 17.4355 5.92503 17.5996 5.92499Z" stroke="white"/>
  </symbol>
  <symbol id="eco" viewBox="0 0 24 24" fill="currentColor">
    <path d="M5.22334 19.7267C4.477 18.9607 3.89492 18.0753 3.47709 17.0705C3.05942 16.0658 2.85059 15.0383 2.85059 13.988C2.85059 12.7595 3.06709 11.6321 3.50009 10.6057C3.93309 9.57941 4.57859 8.63724 5.43659 7.77924C6.50975 6.71007 8.03959 5.94099 10.0261 5.47199C12.0128 5.00299 14.4503 4.80216 17.3386 4.86949C17.7118 4.88616 18.0517 4.96182 18.3583 5.09649C18.6648 5.23099 18.9423 5.41857 19.1908 5.65924C19.4342 5.90307 19.6271 6.17841 19.7696 6.48524C19.9119 6.79207 19.9906 7.13416 20.0056 7.51149C20.0516 8.95566 20.0329 10.2896 19.9496 11.5132C19.8663 12.7371 19.7038 13.851 19.4621 14.855C19.2204 15.8588 18.9045 16.7522 18.5143 17.535C18.1242 18.3177 17.6533 18.9855 17.1018 19.5385C16.252 20.3923 15.3267 21.04 14.3258 21.4815C13.325 21.9228 12.2571 22.1435 11.1221 22.1435C9.94942 22.1435 8.876 21.9487 7.90184 21.559C6.9275 21.1693 6.03467 20.5586 5.22334 19.7267ZM7.93009 19.5712C8.34942 19.8546 8.83342 20.0692 9.38209 20.2152C9.93075 20.3612 10.5097 20.4342 11.1188 20.4342C11.9948 20.4342 12.8453 20.2519 13.6701 19.8872C14.4948 19.5226 15.2428 18.9962 15.9143 18.3082C16.3922 17.8262 16.7904 17.2008 17.1091 16.432C17.4278 15.6632 17.6811 14.776 17.8691 13.7705C18.0571 12.7648 18.1785 11.6559 18.2333 10.4437C18.288 9.23157 18.284 7.94324 18.2213 6.57874C16.6667 6.54141 15.2724 6.56124 14.0386 6.63824C12.8049 6.71524 11.7161 6.85374 10.7721 7.05374C9.82809 7.25374 9.01842 7.50891 8.34309 7.81924C7.66775 8.12957 7.11934 8.50374 6.69784 8.94174C6.00984 9.64257 5.4805 10.3917 5.10984 11.189C4.73917 11.9863 4.55384 12.7942 4.55384 13.6125C4.55384 14.3953 4.71967 15.2207 5.05134 16.0885C5.38317 16.9563 5.79967 17.6549 6.30084 18.1842C7.159 16.5747 8.19875 15.128 9.42009 13.844C10.6416 12.56 11.9599 11.533 13.3751 10.763C11.9411 12.017 10.7761 13.3712 9.88009 14.8255C8.98392 16.2798 8.33392 17.8617 7.93009 19.5712Z"/>
  </symbol>
  <symbol id="floor_lamp" viewBox="0 0 24 24" fill="currentColor">
    <path d="M12.0205 18.994C11.779 18.994 11.5774 18.9122 11.4157 18.7485C11.254 18.5848 11.1732 18.3828 11.1732 18.1425V11H5.71795C5.42445 11 5.19045 10.8819 5.01595 10.6457C4.84145 10.4094 4.80187 10.1567 4.8972 9.88749L7.01145 3.01999C7.12912 2.66366 7.33945 2.37466 7.64245 2.15299C7.94545 1.93149 8.2842 1.82074 8.6587 1.82074H15.3912C15.7657 1.82074 16.1045 1.93149 16.4075 2.15299C16.7105 2.37466 16.9208 2.66366 17.0385 3.01999L19.1587 9.88749C19.25 10.1567 19.2085 10.4094 19.034 10.6457C18.8595 10.8819 18.6255 11 18.332 11H12.8767V18.1425C12.8767 18.3828 12.7944 18.5848 12.6297 18.7485C12.4652 18.9122 12.2621 18.994 12.0205 18.994ZM6.85545 9.29074H17.1945L15.4162 3.52399H8.6337L6.85545 9.29074ZM9.02495 22.2032C8.78462 22.2032 8.58262 22.121 8.41895 21.9565C8.25512 21.792 8.1732 21.5869 8.1732 21.3412C8.1732 21.0996 8.25512 20.898 8.41895 20.7365C8.58262 20.5748 8.78462 20.494 9.02495 20.494H15.025C15.2653 20.494 15.4673 20.5762 15.631 20.7407C15.7948 20.9052 15.8767 21.1083 15.8767 21.35C15.8767 21.5957 15.7948 21.7992 15.631 21.9607C15.4673 22.1224 15.2653 22.2032 15.025 22.2032H9.02495Z"/>
  </symbol>
  <symbol id="location_on" viewBox="0 0 24 24">
    <path d="M12 2.34473C14.0243 2.34473 15.803 3.04933 17.3555 4.47754C18.879 5.87913 19.6553 7.7626 19.6553 10.1826C19.6552 11.1679 19.4383 12.1526 18.9961 13.1406C18.5426 14.154 17.9735 15.1246 17.2881 16.0527C16.5967 16.9889 15.8459 17.8627 15.0352 18.6738C14.2121 19.4974 13.4448 20.2259 12.7334 20.8594L12.7275 20.8643L12.7227 20.8691C12.6321 20.9548 12.5276 21.017 12.4053 21.0566C12.2588 21.1041 12.1216 21.126 11.9922 21.126C11.8629 21.126 11.7293 21.104 11.5898 21.0576C11.4741 21.0191 11.376 20.959 11.29 20.875L11.2812 20.8662L11.2715 20.8584C10.5565 20.2252 9.78753 19.497 8.96484 18.6738C8.1541 17.8627 7.40327 16.9889 6.71191 16.0527C6.02666 15.1248 5.45823 14.1547 5.00684 13.1416C4.56647 12.1534 4.35064 11.1682 4.35059 10.1826C4.35059 7.76231 5.12671 5.8791 6.64844 4.47754C8.19877 3.04953 9.97573 2.34475 12 2.34473ZM12 3.05371C10.0648 3.05371 8.40993 3.72261 7.06836 5.05664C5.71878 6.39887 5.05371 8.12233 5.05371 10.1826C5.05382 11.6021 5.64762 13.1413 6.75195 14.7861C7.85681 16.4317 9.49748 18.2606 11.6592 20.2715L11.9961 20.585L12.3359 20.2764C14.5487 18.2689 16.2063 16.4381 17.2891 14.7852C18.3679 13.138 18.9462 11.5989 18.9463 10.1826C18.9463 8.12228 18.2813 6.39888 16.9316 5.05664V5.05566C15.5898 3.72177 13.9351 3.05375 12 3.05371ZM11.998 8.70215C12.3642 8.7022 12.662 8.82522 12.9189 9.08105C13.1751 9.33617 13.2979 9.63248 13.2979 9.99805C13.2978 10.3642 13.1749 10.6605 12.9199 10.915C12.6651 11.1694 12.3684 11.292 12.002 11.292C11.6349 11.2919 11.3392 11.169 11.085 10.916C10.8314 10.6634 10.7081 10.3691 10.708 10.0029C10.708 9.68146 10.8023 9.41279 10.9961 9.17871L11.085 9.08105C11.3379 8.82567 11.6325 8.70215 11.998 8.70215Z" stroke="white"/>
  </symbol>
  <symbol id="mail" viewBox="0 0 24 24">
    <path d="M3.05371 5.74219V18.9463H20.9463V6.13867L20.1709 6.64844L12.2148 11.8867C12.1545 11.9184 12.1021 11.944 12.0566 11.9619C12.0535 11.9629 12.0367 11.9678 12 11.9678C11.9627 11.9678 11.9461 11.9628 11.9434 11.9619C11.8977 11.9439 11.8449 11.9186 11.7842 11.8867L4.05371 6.7959V6.39648L11.7266 11.4219L12 11.6016L12.2734 11.4229L20.6201 5.97266L21.6309 5.31152C21.6465 5.38933 21.6553 5.46973 21.6553 5.55371V18.4463C21.6553 18.7675 21.543 19.041 21.2939 19.2891C21.0451 19.5371 20.7703 19.6494 20.4463 19.6494H3.55371C3.23199 19.6494 2.95881 19.5371 2.71094 19.2891L2.62402 19.1953C2.43636 18.9725 2.35059 18.7279 2.35059 18.4463V5.55371C2.3506 5.46519 2.35965 5.38047 2.37695 5.29883L3.05371 5.74219ZM3.55371 4.34473H20.4463C20.7697 4.34473 21.0439 4.4579 21.293 4.70703H21.2939C21.4036 4.81669 21.4851 4.93216 21.5439 5.05371H2.46094C2.51962 4.93172 2.60139 4.81595 2.71094 4.70605H2.71191C2.95988 4.45718 3.23264 4.34476 3.55371 4.34473Z" stroke="white"/>
  </symbol>
  <symbol id="menu" viewBox="0 0 24 24">
    <path d="M3.70234 18.2212C3.46184 18.2212 3.25975 18.139 3.09609 17.9745C2.93242 17.81 2.85059 17.6049 2.85059 17.3592C2.85059 17.1176 2.93242 16.9159 3.09609 16.7542C3.25975 16.5927 3.46184 16.512 3.70234 16.512H20.2978C20.5383 16.512 20.7414 16.5942 20.9071 16.7587C21.0728 16.9232 21.1556 17.1263 21.1556 17.368C21.1556 17.6137 21.0728 17.8172 20.9071 17.9787C20.7414 18.1404 20.5383 18.2212 20.2978 18.2212H3.70234ZM3.70234 12.8517C3.46184 12.8517 3.25975 12.7694 3.09609 12.6047C2.93242 12.4402 2.85059 12.2372 2.85059 11.9955C2.85059 11.754 2.93242 11.5524 3.09609 11.3907C3.25975 11.2291 3.46184 11.1482 3.70234 11.1482H20.2978C20.5383 11.1482 20.7414 11.2306 20.9071 11.3952C21.0728 11.5597 21.1556 11.7628 21.1556 12.0045C21.1556 12.246 21.0728 12.4476 20.9071 12.6092C20.7414 12.7709 20.5383 12.8517 20.2978 12.8517H3.70234ZM3.70234 7.488C3.46184 7.488 3.25975 7.40575 3.09609 7.24125C2.93242 7.07675 2.85059 6.87166 2.85059 6.626C2.85059 6.38433 2.93242 6.18275 3.09609 6.02125C3.25975 5.85958 3.46184 5.77875 3.70234 5.77875H20.2978C20.5383 5.77875 20.7414 5.861 20.9071 6.0255C21.0728 6.19 21.1556 6.39308 21.1556 6.63475C21.1556 6.88041 21.0728 7.08408 20.9071 7.24575C20.7414 7.40725 20.5383 7.488 20.2978 7.488H3.70234Z"/>
  </symbol>
  <symbol id="star" viewBox="0 0 20 19">
    <path d="M10.0078 1.00098L12.0361 5.81934C12.328 6.51225 12.9837 6.97813 13.7275 7.03711L18.9854 7.45312L14.9893 10.835H14.9883C14.4157 11.3197 14.1618 12.086 14.3389 12.8193L15.5615 17.8848C15.5599 17.8857 15.5589 17.8872 15.5576 17.8877C15.5559 17.8869 15.5532 17.8858 15.5498 17.8838L11.041 15.1631C10.4014 14.7772 9.59865 14.7772 8.95898 15.1631L4.4502 17.8838C4.44677 17.8858 4.4441 17.8869 4.44238 17.8877C4.44085 17.8871 4.43936 17.8859 4.4375 17.8848L5.66113 12.8193C5.8271 12.1321 5.61431 11.416 5.11523 10.9297L5.01172 10.835L1.01367 7.45312L6.27246 7.03711C7.01627 6.97814 7.67205 6.51246 7.96387 5.81934L9.99121 1.00098C9.99362 1.00054 9.99658 1 10 1C10.003 1 10.0056 1.00062 10.0078 1.00098Z" stroke="#CE4D46" stroke-width="2"/>
  </symbol>
  <symbol id="view_comfy" viewBox="0 0 24 24" fill="currentColor">
    <path d="M1.85059 18.4463V5.55376C1.85059 5.08376 2.01734 4.68143 2.35084 4.34676C2.6845 4.01193 3.0855 3.84451 3.55384 3.84451H20.4463C20.9163 3.84451 21.3187 4.01193 21.6533 4.34676C21.9882 4.68143 22.1556 5.08376 22.1556 5.55376V18.4463C22.1556 18.9146 21.9882 19.3156 21.6533 19.6493C21.3187 19.9828 20.9163 20.1495 20.4463 20.1495H3.55384C3.0855 20.1495 2.6845 19.9828 2.35084 19.6493C2.01734 19.3156 1.85059 18.9146 1.85059 18.4463ZM20.4463 11.25V5.55376H3.55384V11.25H20.4463ZM9.58709 18.4463H20.4463V12.75H9.58709V18.4463ZM3.55384 18.4463H8.08709V12.75H3.55384V18.4463Z"/>
  </symbol>
  <symbol id="icon-logo" viewBox="3 6 65 18">
    <path fill="#fff" style="fill: var(--color1, #fff)" d="M40.149 23.027v-0.536l0.693-0.119v-3.285l-0.693-0.119v-0.54h2.218v0.54l-0.693 0.119v2.596l0.026 0.008 2.027-3.264h1.53v0.54l-0.693 0.119v3.285l0.693 0.119v0.536h-2.223v-0.536l0.693-0.119v-2.601l-0.025-0.009-2.027 3.264zM42.728 17.622q-0.616 0-0.969-0.332-0.353-0.335-0.353-0.866l0.008-0.026h0.638q0 0.305 0.161 0.497 0.166 0.191 0.514 0.191 0.34 0 0.506-0.191 0.166-0.192 0.166-0.497h0.641l0.008 0.025q-0.004 0.532-0.357 0.867-0.349 0.332-0.965 0.332zM37.728 23.116q-0.638 0-1.109-0.289c-0.315-0.198-0.564-0.474-0.726-0.8l-0.005-0.012q-0.255-0.518-0.255-1.198v-0.187q0-0.654 0.268-1.168 0.272-0.519 0.718-0.816c0.272-0.189 0.61-0.302 0.974-0.302 0.003 0 0.005 0 0.008 0h-0q0.62 0 1.037 0.255 0.421 0.255 0.633 0.718 0.213 0.459 0.213 1.084v0.523h-2.983l-0.013 0.021q0.008 0.442 0.153 0.786 0.149 0.34 0.425 0.536t0.663 0.195q0.425 0 0.743-0.119c0.215-0.080 0.4-0.194 0.558-0.337l-0.002 0.001 0.327 0.544q-0.246 0.238-0.655 0.404-0.404 0.161-0.973 0.161zM36.526 20.269h2.12v-0.111q0-0.331-0.119-0.591c-0.074-0.172-0.194-0.313-0.344-0.41l-0.004-0.002q-0.23-0.153-0.578-0.153-0.281 0-0.51 0.165-0.229 0.161-0.378 0.442t-0.196 0.637zM32.736 23.027v-0.536l0.693-0.119v-0.986c-0.138 0.037-0.308 0.070-0.482 0.092l-0.019 0.002q-0.255 0.030-0.54 0.030-0.552 0-0.952-0.195c-0.262-0.128-0.472-0.328-0.608-0.575l-0.004-0.007q-0.213-0.386-0.213-0.956v-0.697l-0.693-0.119v-0.536h2.223v0.536l-0.693 0.119v0.697q0 0.366 0.102 0.604 0.106 0.238 0.315 0.352 0.212 0.115 0.522 0.115 0.281 0 0.536-0.030c0.198-0.027 0.369-0.061 0.536-0.105l-0.031 0.007v-1.631l-0.693-0.119v-0.54h2.223v0.54l-0.693 0.119v3.285l0.693 0.119v0.536zM27.635 23.116q-0.637 0-1.109-0.289c-0.315-0.198-0.564-0.474-0.726-0.8l-0.005-0.012q-0.255-0.518-0.255-1.198v-0.187q0-0.654 0.268-1.168 0.272-0.519 0.719-0.816c0.272-0.189 0.61-0.302 0.974-0.302 0.002 0 0.005 0 0.007 0h-0q0.62 0 1.037 0.255 0.421 0.255 0.634 0.718 0.212 0.459 0.212 1.084v0.523h-2.983l-0.013 0.021q0.009 0.442 0.153 0.786 0.149 0.34 0.425 0.536t0.663 0.195q0.425 0 0.743-0.119c0.215-0.080 0.4-0.194 0.559-0.337l-0.002 0.001 0.327 0.544q-0.246 0.238-0.655 0.404-0.404 0.161-0.973 0.161zM26.432 20.269h2.121v-0.111q0-0.331-0.119-0.591c-0.074-0.172-0.194-0.313-0.345-0.41l-0.004-0.002q-0.229-0.153-0.578-0.153-0.281 0-0.51 0.165-0.229 0.161-0.378 0.442t-0.195 0.637zM19.792 23.027v-0.536l0.693-0.119v-3.285l-0.693-0.119v-0.54h5.108v0.54l-0.693 0.119v3.285l0.693 0.119v0.536h-2.223v-0.536l0.693-0.119v-3.281h-2.048v3.281l0.692 0.119v0.536zM63.072 15.649v-0.535l0.604-0.090 0.786-1.283q-0.438-0.158-0.676-0.497-0.234-0.34-0.234-0.786 0-0.416 0.213-0.731 0.213-0.319 0.607-0.497 0.399-0.179 0.944-0.179h2.635v0.54l-0.693 0.119v3.285l0.693 0.119v0.535h-2.223v-0.535l0.693-0.119v-1.13h-1.135l-1.088 1.785zM65.231 13.206h1.19v-1.505h-1.105q-0.455 0-0.689 0.229c-0.144 0.132-0.234 0.321-0.234 0.531 0 0.002 0 0.004 0 0.005v-0q0 0.306 0.208 0.522 0.213 0.217 0.629 0.217zM57.363 15.649v-0.535l0.693-0.119v-3.285l-0.693-0.119v-0.54h2.222v0.54l-0.693 0.119v1.33h2.044v-1.33l-0.693-0.119v-0.54h2.227v0.54l-0.693 0.119v3.285l0.693 0.119v0.535h-2.227v-0.535l0.693-0.119v-1.301h-2.044v1.301l0.693 0.119v0.535zM51.955 17.417v-0.54l0.65-0.119v-5.049l-0.693-0.119v-0.54h1.411l0.077 0.561q0.229-0.315 0.556-0.48 0.331-0.166 0.765-0.166 0.57 0 0.973 0.31 0.404 0.306 0.616 0.863 0.212 0.552 0.212 1.296v0.089q0 0.663-0.217 1.16-0.213 0.497-0.612 0.778-0.399 0.276-0.961 0.276-0.425 0-0.748-0.14c-0.218-0.101-0.4-0.245-0.542-0.422l-0.002-0.003v1.585l0.731 0.119v0.54zM54.475 15.084q0.595 0 0.901-0.433t0.306-1.126v-0.089q0-0.527-0.136-0.927-0.136-0.404-0.408-0.633-0.267-0.229-0.672-0.229-0.356 0-0.612 0.161c-0.172 0.112-0.311 0.261-0.409 0.435l-0.003 0.006v2.24q0.158 0.285 0.408 0.442 0.255 0.153 0.625 0.153zM49.76 15.738q-0.638 0-1.109-0.289c-0.315-0.198-0.564-0.473-0.726-0.8l-0.005-0.011q-0.255-0.518-0.255-1.199v-0.187q0-0.654 0.268-1.168 0.272-0.518 0.718-0.816c0.272-0.189 0.61-0.302 0.974-0.302 0.003 0 0.005 0 0.008 0h-0q0.62 0 1.037 0.255 0.421 0.255 0.633 0.719 0.213 0.458 0.213 1.083v0.523h-2.983l-0.013 0.021q0.008 0.442 0.153 0.786 0.149 0.34 0.425 0.536t0.663 0.195q0.425 0 0.744-0.119c0.215-0.081 0.4-0.194 0.558-0.337l-0.002 0.001 0.327 0.544q-0.247 0.238-0.654 0.404-0.404 0.162-0.973 0.161zM48.557 12.891h2.12v-0.111q0-0.331-0.119-0.591c-0.074-0.172-0.194-0.313-0.345-0.41l-0.004-0.002q-0.229-0.153-0.578-0.153-0.281 0-0.51 0.165c-0.159 0.115-0.286 0.264-0.375 0.435l-0.003 0.007q-0.149 0.281-0.195 0.638zM44.122 15.649v-0.535l0.693-0.119v-3.294h-0.969l-0.064 0.718h-0.714v-1.369h4.352v1.369h-0.719l-0.063-0.719h-0.986v3.294l0.693 0.119v0.536zM40.677 15.738q-0.624 0-1.088-0.289c-0.31-0.199-0.555-0.475-0.713-0.8l-0.005-0.012q-0.255-0.518-0.255-1.199v-0.178q0-0.655 0.246-1.173c0.16-0.34 0.403-0.618 0.703-0.816l0.007-0.005q0.463-0.302 1.105-0.302 0.557 0 0.973 0.183 0.42 0.183 0.705 0.502l0.021 1.105h-0.655l-0.144-0.803c-0.1-0.101-0.22-0.181-0.354-0.235l-0.007-0.003c-0.143-0.057-0.308-0.090-0.481-0.090-0.010 0-0.021 0-0.031 0l0.002-0q-0.374 0-0.659 0.222-0.281 0.22-0.438 0.591-0.157 0.369-0.157 0.824v0.178q0 0.502 0.145 0.871 0.149 0.37 0.42 0.574 0.276 0.2 0.655 0.2 0.425 0 0.705-0.234t0.344-0.641h0.752l0.008 0.026c-0.015 0.276-0.1 0.529-0.238 0.746l0.004-0.006q-0.213 0.345-0.608 0.556-0.391 0.208-0.965 0.208zM32.852 15.649v-0.535l0.693-0.119v-3.285l-0.693-0.119v-0.54h2.218v0.54l-0.693 0.119v2.596l0.026 0.009 2.027-3.264h1.53v0.54l-0.693 0.119v3.285l0.693 0.119v0.535h-2.223v-0.535l0.693-0.119v-2.601l-0.025-0.009-2.027 3.264zM35.431 10.243q-0.616 0-0.969-0.331-0.353-0.336-0.353-0.867l0.008-0.026h0.638q0 0.305 0.161 0.497 0.166 0.191 0.514 0.191 0.34 0 0.506-0.191t0.166-0.497h0.641l0.008 0.026q-0.004 0.531-0.357 0.866-0.349 0.332-0.965 0.332zM29.518 15.738q-0.718 0-1.092-0.348-0.374-0.352-0.374-0.991 0-0.655 0.536-1.050 0.535-0.399 1.488-0.399h0.82v-0.45q0-0.416-0.255-0.646-0.251-0.23-0.71-0.23-0.288 0-0.502 0.072c-0.147 0.048-0.275 0.113-0.391 0.194l0.004-0.003-0.089 0.641h-0.646v-1.054q0.31-0.251 0.722-0.379c0.261-0.084 0.562-0.132 0.874-0.132 0.014 0 0.028 0 0.042 0l-0.002-0q0.837 0 1.313 0.4t0.476 1.143v2.388q0.004 0.085 0.013 0.17l0.446 0.047v0.535h-1.203q-0.038-0.187-0.059-0.336c-0.013-0.082-0.023-0.185-0.029-0.288l-0-0.009q-0.243 0.31-0.608 0.518c-0.221 0.128-0.486 0.204-0.769 0.204-0.002 0-0.003 0-0.005 0h0zM29.641 15.037q0.417 0 0.761-0.2t0.493-0.48v-0.833h-0.85q-0.578 0-0.866 0.276-0.289 0.276-0.289 0.616 0 0.302 0.187 0.463 0.187 0.158 0.565 0.158zM19.779 15.649v-0.535l0.693-0.119v-4.874l-0.693-0.119v-0.54h1.81l1.993 4.697h0.026l1.929-4.697h1.866v0.54l-0.693 0.119v4.875l0.693 0.119v0.536h-2.222v-0.536l0.731-0.119v-4.391l-0.021-0.004-2.010 4.828h-0.556l-2.079-4.819-0.021 0.004 0.030 2.588v1.793l0.748 0.119v0.536z"></path>
    <path fill="#f01e01" style="fill: var(--color2, #f01e01)" d="M3.879 12.032c0.376 0.667 0.71 1.441 0.96 2.251l0.022 0.085c0.148 0.468 0.276 1.034 0.36 1.614l0.007 0.061c0.619-0.607 1.355-1.487 1.891-2.667 1.397-3.075 0.412-5.938 0.049-6.853 0.819 0.344 2.086 1 3.192 2.204 2.169 2.361 2.128 5.091 2.087 5.861 0.363-0.368 0.673-0.788 0.918-1.249l0.014-0.029c0.249-0.466 0.43-1.008 0.512-1.583l0.003-0.026c2.417 3.056 2.693 6.783 0.762 9.277-0.207 0.266-2.431 3.043-5.918 2.821-2.347-0.15-3.81-1.567-4.052-1.807-1.308-1.306-1.759-3.063-1.571-4.473 0.165-1.242 0.757-1.701 0.884-3.393 0.065-0.876-0.030-1.605-0.123-2.093z"></path>
    <path fill="#f35b00" style="fill: var(--color3, #f35b00)" d="M9.133 10.005c0.075 1.468-0.249 2.523-0.54 3.195-0.771 1.781-1.969 2.392-2.676 4.363-0.325 0.906-0.401 1.694-0.418 2.182-0.103-0.302-0.236-0.565-0.4-0.804l0.007 0.011c-0.215-0.314-0.466-0.583-0.753-0.809l-0.008-0.006c-0.047 0.68-0.044 2.214 0.982 3.658 0.301 0.423 0.797 1.103 1.768 1.564 0.444 0.213 0.959 0.361 1.502 0.417l0.020 0.002c1.147 0 2.075-0.176 2.333-0.242 1.051-0.268 1.718-1.434 2.111-2.122 1.154-2.018 1.214-4.072 1.105-5.37-0.185 0.68-0.428 1.273-0.733 1.827l0.021-0.042c-0.275 0.503-0.568 0.935-0.896 1.338l0.012-0.016c-0.139-0.642-0.342-1.209-0.609-1.739l0.019 0.042c-0.514-1.042-0.912-1.22-1.375-2.115-0.384-0.743-0.308-1.003-0.688-2.6-0.272-1.142-0.542-2.056-0.851-2.95l0.066 0.218z"></path>
    <path fill="#fdb800" style="fill: var(--color4, #fdb800)" d="M7.046 17.298c-0.007 0.342-0.039 0.852-0.172 1.454-0.219 0.996-0.469 1.154-0.589 1.851-0.069 0.403-0.295 1.714 0.589 2.534 0.659 0.61 1.603 0.665 2.111 0.683 0.419 0.015 1.545 0.032 2.333-0.595 1.252-0.995 0.995-3.147 0.27-4.451-0.448-0.807-0.859-0.898-1.4-1.94-0.351-0.665-0.594-1.44-0.685-2.262l-0.003-0.029c-0.186 0.474-0.309 1.021-0.343 1.593l-0.001 0.015c-0.075 1.374 0.438 2.049 0.049 2.997-0.128 0.311-0.384 0.728-0.958 1.146 0.002-0.044 0.003-0.096 0.003-0.148 0-0.411-0.064-0.808-0.182-1.18l0.008 0.028c-0.256-0.822-0.73-1.39-1.031-1.697z"></path>
    </symbol>
  <symbol id="eco" viewBox="0 0 24 24">
    <path d="M5.22334 19.7267C4.477 18.9607 3.89492 18.0753 3.47709 17.0705C3.05942 16.0658 2.85059 15.0383 2.85059 13.988C2.85059 12.7595 3.06709 11.6321 3.50009 10.6057C3.93309 9.57941 4.57859 8.63724 5.43659 7.77924C6.50975 6.71007 8.03959 5.94099 10.0261 5.47199C12.0128 5.00299 14.4503 4.80216 17.3386 4.86949C17.7118 4.88616 18.0517 4.96182 18.3583 5.09649C18.6648 5.23099 18.9423 5.41857 19.1908 5.65924C19.4342 5.90307 19.6271 6.17841 19.7696 6.48524C19.9119 6.79207 19.9906 7.13416 20.0056 7.51149C20.0516 8.95566 20.0329 10.2896 19.9496 11.5132C19.8663 12.7371 19.7038 13.851 19.4621 14.855C19.2204 15.8588 18.9045 16.7522 18.5143 17.535C18.1242 18.3177 17.6533 18.9855 17.1018 19.5385C16.252 20.3923 15.3267 21.04 14.3258 21.4815C13.325 21.9228 12.2571 22.1435 11.1221 22.1435C9.94942 22.1435 8.876 21.9487 7.90184 21.559C6.9275 21.1693 6.03467 20.5586 5.22334 19.7267ZM7.93009 19.5712C8.34942 19.8546 8.83342 20.0692 9.38209 20.2152C9.93075 20.3612 10.5097 20.4342 11.1188 20.4342C11.9948 20.4342 12.8453 20.2519 13.6701 19.8872C14.4948 19.5226 15.2428 18.9962 15.9143 18.3082C16.3922 17.8262 16.7904 17.2008 17.1091 16.432C17.4278 15.6632 17.6811 14.776 17.8691 13.7705C18.0571 12.7648 18.1785 11.6559 18.2333 10.4437C18.288 9.23157 18.284 7.94324 18.2213 6.57874C16.6667 6.54141 15.2724 6.56124 14.0386 6.63824C12.8049 6.71524 11.7161 6.85374 10.7721 7.05374C9.82809 7.25374 9.01842 7.50891 8.34309 7.81924C7.66775 8.12957 7.11934 8.50374 6.69784 8.94174C6.00984 9.64257 5.4805 10.3917 5.10984 11.189C4.73917 11.9863 4.55384 12.7942 4.55384 13.6125C4.55384 14.3953 4.71967 15.2207 5.05134 16.0885C5.38317 16.9563 5.79967 17.6549 6.30084 18.1842C7.159 16.5747 8.19875 15.128 9.42009 13.844C10.6416 12.56 11.9599 11.533 13.3751 10.763C11.9411 12.017 10.7761 13.3712 9.88009 14.8255C8.98392 16.2798 8.33392 17.8617 7.93009 19.5712Z"/>
  </symbol>
  <symbol id="floor_lamp" viewBox="0 0 24 24">
    <path d="M12.0205 18.994C11.779 18.994 11.5774 18.9122 11.4157 18.7485C11.254 18.5848 11.1732 18.3828 11.1732 18.1425V11H5.71795C5.42445 11 5.19045 10.8819 5.01595 10.6457C4.84145 10.4094 4.80187 10.1567 4.8972 9.88749L7.01145 3.01999C7.12912 2.66366 7.33945 2.37466 7.64245 2.15299C7.94545 1.93149 8.2842 1.82074 8.6587 1.82074H15.3912C15.7657 1.82074 16.1045 1.93149 16.4075 2.15299C16.7105 2.37466 16.9208 2.66366 17.0385 3.01999L19.1587 9.88749C19.25 10.1567 19.2085 10.4094 19.034 10.6457C18.8595 10.8819 18.6255 11 18.332 11H12.8767V18.1425C12.8767 18.3828 12.7944 18.5848 12.6297 18.7485C12.4652 18.9122 12.2621 18.994 12.0205 18.994ZM6.85545 9.29074H17.1945L15.4162 3.52399H8.6337L6.85545 9.29074ZM9.02495 22.2032C8.78462 22.2032 8.58262 22.121 8.41895 21.9565C8.25512 21.792 8.1732 21.5869 8.1732 21.3412C8.1732 21.0996 8.25512 20.898 8.41895 20.7365C8.58262 20.5748 8.78462 20.494 9.02495 20.494H15.025C15.2653 20.494 15.4673 20.5762 15.631 20.7407C15.7948 20.9052 15.8767 21.1083 15.8767 21.35C15.8767 21.5957 15.7948 21.7992 15.631 21.9607C15.4673 22.1224 15.2653 22.2032 15.025 22.2032H9.02495Z"/>
  </symbol>
  <symbol id="location_on" viewBox="0 0 24 24">
    <path d="M12 2.34473C14.0243 2.34473 15.803 3.04933 17.3555 4.47754C18.879 5.87913 19.6553 7.7626 19.6553 10.1826C19.6552 11.1679 19.4383 12.1526 18.9961 13.1406C18.5426 14.154 17.9735 15.1246 17.2881 16.0527C16.5967 16.9889 15.8459 17.8627 15.0352 18.6738C14.2121 19.4974 13.4448 20.2259 12.7334 20.8594L12.7275 20.8643L12.7227 20.8691C12.6321 20.9548 12.5276 21.017 12.4053 21.0566C12.2588 21.1041 12.1216 21.126 11.9922 21.126C11.8629 21.126 11.7293 21.104 11.5898 21.0576C11.4741 21.0191 11.376 20.959 11.29 20.875L11.2812 20.8662L11.2715 20.8584C10.5565 20.2252 9.78753 19.497 8.96484 18.6738C8.1541 17.8627 7.40327 16.9889 6.71191 16.0527C6.02666 15.1248 5.45823 14.1547 5.00684 13.1416C4.56647 12.1534 4.35064 11.1682 4.35059 10.1826C4.35059 7.76231 5.12671 5.8791 6.64844 4.47754C8.19877 3.04953 9.97573 2.34475 12 2.34473ZM12 3.05371C10.0648 3.05371 8.40993 3.72261 7.06836 5.05664C5.71878 6.39887 5.05371 8.12233 5.05371 10.1826C5.05382 11.6021 5.64762 13.1413 6.75195 14.7861C7.85681 16.4317 9.49748 18.2606 11.6592 20.2715L11.9961 20.585L12.3359 20.2764C14.5487 18.2689 16.2063 16.4381 17.2891 14.7852C18.3679 13.138 18.9462 11.5989 18.9463 10.1826C18.9463 8.12228 18.2813 6.39888 16.9316 5.05664V5.05566C15.5898 3.72177 13.9351 3.05375 12 3.05371ZM11.998 8.70215C12.3642 8.7022 12.662 8.82522 12.9189 9.08105C13.1751 9.33617 13.2979 9.63248 13.2979 9.99805C13.2978 10.3642 13.1749 10.6605 12.9199 10.915C12.6651 11.1694 12.3684 11.292 12.002 11.292C11.6349 11.2919 11.3392 11.169 11.085 10.916C10.8314 10.6634 10.7081 10.3691 10.708 10.0029C10.708 9.68146 10.8023 9.41279 10.9961 9.17871L11.085 9.08105C11.3379 8.82567 11.6325 8.70215 11.998 8.70215Z" stroke="white"/>
  </symbol>
  <symbol id="mail" viewBox="0 0 24 24">
    <path d="M3.05371 5.74219V18.9463H20.9463V6.13867L20.1709 6.64844L12.2148 11.8867C12.1545 11.9184 12.1021 11.944 12.0566 11.9619C12.0535 11.9629 12.0367 11.9678 12 11.9678C11.9627 11.9678 11.9461 11.9628 11.9434 11.9619C11.8977 11.9439 11.8449 11.9186 11.7842 11.8867L4.05371 6.7959V6.39648L11.7266 11.4219L12 11.6016L12.2734 11.4229L20.6201 5.97266L21.6309 5.31152C21.6465 5.38933 21.6553 5.46973 21.6553 5.55371V18.4463C21.6553 18.7675 21.543 19.041 21.2939 19.2891C21.0451 19.5371 20.7703 19.6494 20.4463 19.6494H3.55371C3.23199 19.6494 2.95881 19.5371 2.71094 19.2891L2.62402 19.1953C2.43636 18.9725 2.35059 18.7279 2.35059 18.4463V5.55371C2.3506 5.46519 2.35965 5.38047 2.37695 5.29883L3.05371 5.74219ZM3.55371 4.34473H20.4463C20.7697 4.34473 21.0439 4.4579 21.293 4.70703H21.2939C21.4036 4.81669 21.4851 4.93216 21.5439 5.05371H2.46094C2.51962 4.93172 2.60139 4.81595 2.71094 4.70605H2.71191C2.95988 4.45718 3.23264 4.34476 3.55371 4.34473Z" stroke="white"/>
  </symbol>
  <symbol id="menu" viewBox="0 0 24 24">
    <path d="M3.70234 18.2212C3.46184 18.2212 3.25975 18.139 3.09609 17.9745C2.93242 17.81 2.85059 17.6049 2.85059 17.3592C2.85059 17.1176 2.93242 16.9159 3.09609 16.7542C3.25975 16.5927 3.46184 16.512 3.70234 16.512H20.2978C20.5383 16.512 20.7414 16.5942 20.9071 16.7587C21.0728 16.9232 21.1556 17.1263 21.1556 17.368C21.1556 17.6137 21.0728 17.8172 20.9071 17.9787C20.7414 18.1404 20.5383 18.2212 20.2978 18.2212H3.70234ZM3.70234 12.8517C3.46184 12.8517 3.25975 12.7694 3.09609 12.6047C2.93242 12.4402 2.85059 12.2372 2.85059 11.9955C2.85059 11.754 2.93242 11.5524 3.09609 11.3907C3.25975 11.2291 3.46184 11.1482 3.70234 11.1482H20.2978C20.5383 11.1482 20.7414 11.2306 20.9071 11.3952C21.0728 11.5597 21.1556 11.7628 21.1556 12.0045C21.1556 12.246 21.0728 12.4476 20.9071 12.6092C20.7414 12.7709 20.5383 12.8517 20.2978 12.8517H3.70234ZM3.70234 7.488C3.46184 7.488 3.25975 7.40575 3.09609 7.24125C2.93242 7.07675 2.85059 6.87166 2.85059 6.626C2.85059 6.38433 2.93242 6.18275 3.09609 6.02125C3.25975 5.85958 3.46184 5.77875 3.70234 5.77875H20.2978C20.5383 5.77875 20.7414 5.861 20.9071 6.0255C21.0728 6.19 21.1556 6.39308 21.1556 6.63475C21.1556 6.88041 21.0728 7.08408 20.9071 7.24575C20.7414 7.40725 20.5383 7.488 20.2978 7.488H3.70234Z"/>
  </symbol>
  <symbol id="star" viewBox="0 0 20 19">
    <path d="M10.0078 1.00098L12.0361 5.81934C12.328 6.51225 12.9837 6.97813 13.7275 7.03711L18.9854 7.45312L14.9893 10.835H14.9883C14.4157 11.3197 14.1618 12.086 14.3389 12.8193L15.5615 17.8848C15.5599 17.8857 15.5589 17.8872 15.5576 17.8877C15.5559 17.8869 15.5532 17.8858 15.5498 17.8838L11.041 15.1631C10.4014 14.7772 9.59865 14.7772 8.95898 15.1631L4.4502 17.8838C4.44677 17.8858 4.4441 17.8869 4.44238 17.8877C4.44085 17.8871 4.43936 17.8859 4.4375 17.8848L5.66113 12.8193C5.8271 12.1321 5.61431 11.416 5.11523 10.9297L5.01172 10.835L1.01367 7.45312L6.27246 7.03711C7.01627 6.97814 7.67205 6.51246 7.96387 5.81934L9.99121 1.00098C9.99362 1.00054 9.99658 1 10 1C10.003 1 10.0056 1.00062 10.0078 1.00098Z" stroke="#CE4D46" stroke-width="2"/>
  </symbol>
  <symbol id="view_comfy" viewBox="0 0 24 24">
    <path d="M1.85059 18.4463V5.55376C1.85059 5.08376 2.01734 4.68143 2.35084 4.34676C2.6845 4.01193 3.0855 3.84451 3.55384 3.84451H20.4463C20.9163 3.84451 21.3187 4.01193 21.6533 4.34676C21.9882 4.68143 22.1556 5.08376 22.1556 5.55376V18.4463C22.1556 18.9146 21.9882 19.3156 21.6533 19.6493C21.3187 19.9828 20.9163 20.1495 20.4463 20.1495H3.55384C3.0855 20.1495 2.6845 19.9828 2.35084 19.6493C2.01734 19.3156 1.85059 18.9146 1.85059 18.4463ZM20.4463 11.25V5.55376H3.55384V11.25H20.4463ZM9.58709 18.4463H20.4463V12.75H9.58709V18.4463ZM3.55384 18.4463H8.08709V12.75H3.55384V18.4463Z"/>
  </symbol>
</svg>