<svg xmlns="http://www.w3.org/2000/svg" style="display:none">
  <symbol id="facebook" viewBox="0 0 24 24" fill="currentColor">
    <path d="M22 12.3038C22 6.74719 17.5229 2.24268 12 2.24268C6.47715 2.24268 2 6.74719 2 12.3038C2 17.3255 5.65684 21.4879 10.4375 22.2427V15.2121H7.89844V12.3038H10.4375V10.0872C10.4375 7.56564 11.9305 6.1728 14.2146 6.1728C15.3088 6.1728 16.4531 6.36931 16.4531 6.36931V8.84529H15.1922C13.95 8.84529 13.5625 9.6209 13.5625 10.4166V12.3038H16.3359L15.8926 15.2121H13.5625V22.2427C18.3432 21.4879 22 17.3257 22 12.3038Z"/>
  </symbol>
  <symbol id="instagram" viewBox="0 0 24 24" fill="currentColor">
    <path d="M11.9988 4.62091C14.4032 4.62091 14.6878 4.63159 15.6332 4.67378C16.5123 4.71258 16.9864 4.85994 17.303 4.98311C17.7215 5.14509 18.0235 5.34194 18.3362 5.65465C18.6528 5.97129 18.8458 6.26994 19.0111 6.68838C19.1343 7.00503 19.2816 7.48253 19.3204 8.35822C19.3626 9.3076 19.3733 9.59218 19.3733 11.9932C19.3733 14.3942 19.3626 14.6821 19.3204 15.6281C19.2816 16.5072 19.1343 16.9813 19.0111 17.298C18.8491 17.7164 18.6528 18.0184 18.3396 18.3311C18.0229 18.6478 17.7243 18.8407 17.3064 19.0061C16.9898 19.1292 16.5117 19.2766 15.6366 19.3154C14.6872 19.3576 14.4026 19.3683 12.0016 19.3683C9.60062 19.3683 9.31266 19.3576 8.36666 19.3154C7.48759 19.2766 7.01346 19.1292 6.69682 19.0061C6.27838 18.8441 5.97635 18.6478 5.66308 18.3345C5.34644 18.0179 5.15353 17.7192 4.98817 17.3013C4.865 16.9847 4.71765 16.5066 4.67884 15.6315C4.63666 14.6821 4.62597 14.3975 4.62597 11.9965C4.62597 9.59556 4.63666 9.3076 4.67884 8.3616C4.71765 7.48253 4.865 7.0084 4.98817 6.69176C5.15015 6.27331 5.347 5.97129 5.65971 5.65802C5.97635 5.34137 6.275 5.14846 6.69344 4.98311C7.01009 4.85994 7.48759 4.71258 8.36328 4.67378C9.30872 4.63159 9.59387 4.62091 11.9982 4.62091H11.9988ZM11.9988 3.00056C9.55563 3.00056 9.25023 3.01125 8.29017 3.05343C7.33405 3.09561 6.67657 3.25028 6.1074 3.47187C5.51348 3.70359 5.01067 4.00955 4.5118 4.51236C4.00899 5.01179 3.70303 5.51404 3.47131 6.10459C3.24972 6.6777 3.09505 7.33123 3.05287 8.28736C3.01069 9.25079 3 9.55619 3 11.9994C3 14.4425 3.01069 14.7479 3.05287 15.708C3.09505 16.6641 3.24972 17.3216 3.47131 17.8908C3.70359 18.4847 4.00899 18.9875 4.5118 19.4864C5.01067 19.9852 5.51348 20.2951 6.10402 20.5235C6.67713 20.7451 7.33067 20.8997 8.28679 20.9419C9.24629 20.9841 9.55225 20.9948 11.9954 20.9948C14.4386 20.9948 14.7446 20.9841 15.7041 20.9419C16.6602 20.8997 17.3177 20.7451 17.8868 20.5235C18.4774 20.2951 18.9802 19.9858 19.4791 19.4864C19.9779 18.9869 20.2878 18.4847 20.5162 17.8941C20.7378 17.321 20.8924 16.6675 20.9346 15.7114C20.9768 14.7519 20.9875 14.4459 20.9875 12.0027C20.9875 9.55956 20.9768 9.25417 20.9346 8.29411C20.8924 7.33798 20.7378 6.68051 20.5162 6.11133C20.2946 5.51348 19.9886 5.01123 19.4864 4.5118C18.9875 4.01293 18.4847 3.70303 17.8941 3.47469C17.321 3.25309 16.6675 3.09842 15.7114 3.05624C14.7485 3.01069 14.4425 3 11.9994 3L11.9988 3.00056Z"/>
<path d="M11.9985 7.37671C9.44683 7.37671 7.37598 9.447 7.37598 11.9993C7.37598 14.5516 9.44626 16.6219 11.9985 16.6219C14.5508 16.6219 16.6211 14.5516 16.6211 11.9993C16.6211 9.44756 14.5508 7.37671 11.9985 7.37671ZM11.9985 14.9976C10.3428 14.9976 9.00026 13.6551 9.00026 11.9993C9.00026 10.3435 10.3428 9.00099 11.9985 9.00099C13.6543 9.00099 14.9968 10.3435 14.9968 11.9993C14.9968 13.6551 13.6543 14.9976 11.9985 14.9976Z"/>
<path d="M17.8822 7.19404C17.8822 7.79021 17.3991 8.27333 16.8029 8.27333C16.2068 8.27333 15.7236 7.79021 15.7236 7.19404C15.7236 6.59787 16.2068 6.11475 16.8029 6.11475C17.3991 6.11475 17.8822 6.59787 17.8822 7.19404Z"/>
  </symbol>
  <symbol id="arrow_back" viewBox="0 0 24 24">
    <path d="M12.0078 4.68652C12.0934 4.68658 12.1668 4.71285 12.249 4.79492C12.3313 4.88086 12.3574 4.95797 12.3574 5.04395C12.3573 5.13078 12.3308 5.20478 12.249 5.28711L5.8877 11.6484H19.2979C19.4194 11.6485 19.4945 11.6838 19.5586 11.7471C19.6207 11.8084 19.6553 11.8801 19.6553 12C19.6553 12.1199 19.6207 12.1916 19.5586 12.2529C19.4945 12.3162 19.4194 12.3515 19.2979 12.3516H5.8877L12.2432 18.707V18.7061C12.3254 18.7885 12.3537 18.8653 12.3545 18.957V18.958C12.355 19.0245 12.3404 19.0829 12.2988 19.1426L12.2471 19.2041C12.1671 19.2851 12.0939 19.3113 12.0049 19.3105C11.9104 19.3096 11.8321 19.2796 11.749 19.1973L4.80078 12.249C4.74762 12.1949 4.72192 12.1527 4.70996 12.124V12.123C4.69485 12.0867 4.68652 12.0466 4.68652 11.999C4.68655 11.9514 4.69516 11.9123 4.70996 11.877V11.876C4.72183 11.8475 4.74729 11.8051 4.80078 11.751L11.751 4.80078C11.8414 4.71356 11.9211 4.68652 12.0078 4.68652Z" stroke="white"/>
  </symbol>
  <symbol id="arrow_forward" viewBox="0 0 24 24">
    <path d="M11.9951 4.68945C12.0661 4.69012 12.1279 4.70677 12.1895 4.75L12.251 4.80273L19.1992 11.751C19.2524 11.8051 19.2781 11.8473 19.29 11.876V11.877C19.3052 11.9133 19.3135 11.9534 19.3135 12.001C19.3134 12.0486 19.3048 12.0877 19.29 12.123V12.124C19.2782 12.1525 19.2527 12.1948 19.1992 12.249L12.2451 19.1973C12.1538 19.2875 12.0752 19.3135 11.9922 19.3135C11.9115 19.3134 11.8393 19.2889 11.7559 19.2031L11.751 19.1982L11.6992 19.1377C11.6571 19.0781 11.6426 19.02 11.6426 18.9551C11.6426 18.8904 11.6573 18.8328 11.6992 18.7734L11.751 18.7129L18.1123 12.3516H4.70215C4.58005 12.3515 4.50781 12.3164 4.44727 12.2559H4.44629C4.38542 12.195 4.35059 12.122 4.35059 12C4.35059 11.878 4.38542 11.805 4.44629 11.7441H4.44727C4.50782 11.6836 4.58005 11.6485 4.70215 11.6484H18.1123L11.7568 5.29297C11.6955 5.23162 11.6637 5.17322 11.6514 5.1084L11.6455 5.04102C11.6446 4.95107 11.6708 4.87748 11.751 4.79688L11.752 4.7959C11.8321 4.71531 11.9055 4.68868 11.9951 4.68945Z" stroke="white"/>
  </symbol>
  <symbol id="arrow_top" viewBox="0 0 24 24">
    <path d="M4.52051 11.8384C4.52118 11.7675 4.53782 11.7056 4.58105 11.6441L4.63379 11.5826L11.582 4.63434C11.6362 4.58117 11.6783 4.55549 11.707 4.54352H11.708C11.7444 4.5284 11.7844 4.52008 11.832 4.52008C11.8796 4.52011 11.9188 4.52871 11.9541 4.54352H11.9551C11.9836 4.55539 12.0259 4.58082 12.0801 4.63434L19.0283 11.5884C19.1186 11.6798 19.1445 11.7584 19.1445 11.8414C19.1445 11.9221 19.1199 11.9942 19.0342 12.0777L19.0293 12.0826L18.9688 12.1343C18.9091 12.1764 18.8511 12.191 18.7861 12.191C18.7215 12.191 18.6639 12.1762 18.6045 12.1343L18.5439 12.0826L12.1826 5.72125V19.1314C12.1826 19.2535 12.1474 19.3257 12.0869 19.3863V19.3873C12.026 19.4481 11.9531 19.483 11.8311 19.483C11.709 19.483 11.6361 19.4481 11.5752 19.3873V19.3863C11.5147 19.3257 11.4795 19.2535 11.4795 19.1314V5.72125L5.12402 12.0767C5.06267 12.138 5.00427 12.1698 4.93945 12.1822L4.87207 12.188C4.78212 12.189 4.70854 12.1628 4.62793 12.0826L4.62695 12.0816C4.54637 12.0015 4.51973 11.9281 4.52051 11.8384Z" stroke="white"/>
  </symbol>
  <symbol id="call" viewBox="0 0 24 24">
    <path d="M4.11914 3.34473H7.61914C7.80287 3.34474 7.9305 3.39945 8.03516 3.49805C8.12866 3.58614 8.20717 3.70059 8.26562 3.85156L8.31738 4.01465L8.98242 7.02832C9.01509 7.26011 9.00757 7.44511 8.97266 7.5918C8.94151 7.72276 8.87973 7.83104 8.78027 7.92578L8.77344 7.93164L6.25586 10.415L5.97656 10.6904L6.17676 11.0264C6.60349 11.7435 7.05697 12.416 7.53711 13.042C8.01993 13.6715 8.55611 14.2696 9.14453 14.8369C9.75791 15.4701 10.3991 16.0453 11.0684 16.5605C11.7435 17.0804 12.449 17.5353 13.1846 17.9248L13.5156 18.0996L13.7764 17.832L16.1816 15.3643L16.1914 15.3535C16.331 15.2021 16.4776 15.111 16.6338 15.0645C16.7648 15.0256 16.8946 15.012 17.0254 15.0215L17.1572 15.0391L19.9775 15.6631C20.1433 15.7092 20.2751 15.7806 20.3818 15.875L20.4814 15.9775C20.5982 16.1186 20.6553 16.2764 20.6553 16.4707V19.8809C20.6553 20.1178 20.5811 20.2895 20.4375 20.4316C20.2911 20.5766 20.1182 20.6494 19.8867 20.6494C18.0116 20.6494 16.0913 20.1991 14.1221 19.2842C12.1539 18.3698 10.323 17.0691 8.62988 15.376C7.04282 13.7889 5.79979 12.0798 4.89551 10.249L4.71875 9.88086C3.80172 7.90938 3.35059 5.99008 3.35059 4.11914C3.3506 3.94128 3.39186 3.79881 3.47363 3.67773L3.56934 3.56348C3.71339 3.41863 3.88514 3.34473 4.11914 3.34473ZM4.06641 4.5752C4.09734 5.28818 4.20935 6.0365 4.39941 6.81836C4.59098 7.60639 4.8907 8.47618 5.29492 9.4248L5.58398 10.1035L6.10742 9.58301L8.12695 7.5752L8.32031 7.38281L8.2627 7.11621L7.69434 4.44922L7.60938 4.05371H4.04395L4.06641 4.5752ZM19.9463 16.377L19.5479 16.2949L17.0625 15.7803L16.791 15.7246L16.5986 15.9248L14.6357 17.9824L14.1543 18.4863L14.7871 18.7812C15.482 19.1045 16.2354 19.3664 17.0449 19.5693C17.8556 19.7725 18.6478 19.8945 19.4209 19.9336L19.9463 19.96V16.377Z" stroke="white"/>
  </symbol>
  <symbol id="chevron_down" viewBox="0 0 24 24">
    <path d="M19.5 8.85254C19.4993 8.92349 19.4827 8.98534 19.4395 9.04687L19.3867 9.1084L12.4385 16.0566C12.3843 16.1098 12.3422 16.1355 12.3135 16.1475L12.3125 16.1475C12.2762 16.1626 12.2361 16.1709 12.1885 16.1709C12.1409 16.1709 12.1017 16.1623 12.0664 16.1475L12.0654 16.1475C12.037 16.1356 11.9946 16.1102 11.9404 16.0566L4.99219 9.10254C4.90192 9.01118 4.87598 8.93257 4.87598 8.84961C4.87606 8.76891 4.90059 8.69675 4.98633 8.61328L4.99121 8.6084L5.05176 8.55664C5.11136 8.51454 5.16942 8.50001 5.23437 8.5C5.29902 8.5 5.35665 8.51477 5.41602 8.55664L5.47656 8.6084L10.9873 14.1191L11.8379 14.957L12.1885 15.3018L12.5391 14.957L13.3916 14.1191L18.8965 8.61426C18.9578 8.55294 19.0162 8.52116 19.0811 8.50879L19.1484 8.50293C19.2384 8.50202 19.312 8.52818 19.3926 8.6084L19.3936 8.60937C19.4741 8.68952 19.5008 8.76288 19.5 8.85254Z" stroke="white"/>
  </symbol>
  <symbol id="close" viewBox="0 0 24 24">
    <path d="M17.5996 5.92499C17.7639 5.92499 17.8659 5.97349 17.9463 6.05389C18.0265 6.1342 18.0751 6.23569 18.0752 6.3996C18.0752 6.5638 18.0266 6.66589 17.9463 6.74628L12.6924 12.0002L13.0459 12.3537L17.9463 17.2531C18.0267 17.3335 18.0752 17.4356 18.0752 17.5998C18.0752 17.7641 18.0267 17.8661 17.9463 17.9465C17.8659 18.0269 17.7639 18.0754 17.5996 18.0754C17.4355 18.0753 17.3333 18.0268 17.2529 17.9465L12.3535 13.0461L12 12.6926L6.74609 17.9465C6.66571 18.0268 6.56362 18.0754 6.39941 18.0754C6.23551 18.0753 6.13402 18.0267 6.05371 17.9465C5.97331 17.8661 5.9248 17.7641 5.9248 17.5998C5.92484 17.4356 5.97334 17.3335 6.05371 17.2531L11.3066 12.0002L10.9531 11.6467L6.05371 6.74628C5.97331 6.66587 5.9248 6.56387 5.9248 6.3996C5.92488 6.23556 5.97337 6.13423 6.05371 6.05389C6.13405 5.97356 6.23537 5.92506 6.39941 5.92499C6.56368 5.92499 6.66569 5.97349 6.74609 6.05389L11.6465 10.9533L12 11.3068L17.2529 6.05389C17.3333 5.97352 17.4355 5.92503 17.5996 5.92499Z" stroke="white"/>
  </symbol>
  <symbol id="cp-sprite" viewBox="0 0 24 24" fill="currentColor">
    <symbol id="facebook" viewBox="0 0 24 24">
    <path d="M22 12.3038C22 6.74719 17.5229 2.24268 12 2.24268C6.47715 2.24268 2 6.74719 2 12.3038C2 17.3255 5.65684 21.4879 10.4375 22.2427V15.2121H7.89844V12.3038H10.4375V10.0872C10.4375 7.56564 11.9305 6.1728 14.2146 6.1728C15.3088 6.1728 16.4531 6.36931 16.4531 6.36931V8.84529H15.1922C13.95 8.84529 13.5625 9.6209 13.5625 10.4166V12.3038H16.3359L15.8926 15.2121H13.5625V22.2427C18.3432 21.4879 22 17.3257 22 12.3038Z"/>
  </symbol>
  <symbol id="instagram" viewBox="0 0 24 24">
    <path d="M11.9988 4.62091C14.4032 4.62091 14.6878 4.63159 15.6332 4.67378C16.5123 4.71258 16.9864 4.85994 17.303 4.98311C17.7215 5.14509 18.0235 5.34194 18.3362 5.65465C18.6528 5.97129 18.8458 6.26994 19.0111 6.68838C19.1343 7.00503 19.2816 7.48253 19.3204 8.35822C19.3626 9.3076 19.3733 9.59218 19.3733 11.9932C19.3733 14.3942 19.3626 14.6821 19.3204 15.6281C19.2816 16.5072 19.1343 16.9813 19.0111 17.298C18.8491 17.7164 18.6528 18.0184 18.3396 18.3311C18.0229 18.6478 17.7243 18.8407 17.3064 19.0061C16.9898 19.1292 16.5117 19.2766 15.6366 19.3154C14.6872 19.3576 14.4026 19.3683 12.0016 19.3683C9.60062 19.3683 9.31266 19.3576 8.36666 19.3154C7.48759 19.2766 7.01346 19.1292 6.69682 19.0061C6.27838 18.8441 5.97635 18.6478 5.66308 18.3345C5.34644 18.0179 5.15353 17.7192 4.98817 17.3013C4.865 16.9847 4.71765 16.5066 4.67884 15.6315C4.63666 14.6821 4.62597 14.3975 4.62597 11.9965C4.62597 9.59556 4.63666 9.3076 4.67884 8.3616C4.71765 7.48253 4.865 7.0084 4.98817 6.69176C5.15015 6.27331 5.347 5.97129 5.65971 5.65802C5.97635 5.34137 6.275 5.14846 6.69344 4.98311C7.01009 4.85994 7.48759 4.71258 8.36328 4.67378C9.30872 4.63159 9.59387 4.62091 11.9982 4.62091H11.9988ZM11.9988 3.00056C9.55563 3.00056 9.25023 3.01125 8.29017 3.05343C7.33405 3.09561 6.67657 3.25028 6.1074 3.47187C5.51348 3.70359 5.01067 4.00955 4.5118 4.51236C4.00899 5.01179 3.70303 5.51404 3.47131 6.10459C3.24972 6.6777 3.09505 7.33123 3.05287 8.28736C3.01069 9.25079 3 9.55619 3 11.9994C3 14.4425 3.01069 14.7479 3.05287 15.708C3.09505 16.6641 3.24972 17.3216 3.47131 17.8908C3.70359 18.4847 4.00899 18.9875 4.5118 19.4864C5.01067 19.9852 5.51348 20.2951 6.10402 20.5235C6.67713 20.7451 7.33067 20.8997 8.28679 20.9419C9.24629 20.9841 9.55225 20.9948 11.9954 20.9948C14.4386 20.9948 14.7446 20.9841 15.7041 20.9419C16.6602 20.8997 17.3177 20.7451 17.8868 20.5235C18.4774 20.2951 18.9802 19.9858 19.4791 19.4864C19.9779 18.9869 20.2878 18.4847 20.5162 17.8941C20.7378 17.321 20.8924 16.6675 20.9346 15.7114C20.9768 14.7519 20.9875 14.4459 20.9875 12.0027C20.9875 9.55956 20.9768 9.25417 20.9346 8.29411C20.8924 7.33798 20.7378 6.68051 20.5162 6.11133C20.2946 5.51348 19.9886 5.01123 19.4864 4.5118C18.9875 4.01293 18.4847 3.70303 17.8941 3.47469C17.321 3.25309 16.6675 3.09842 15.7114 3.05624C14.7485 3.01069 14.4425 3 11.9994 3L11.9988 3.00056Z"/>
    <path d="M11.9985 7.37671C9.44683 7.37671 7.37598 9.447 7.37598 11.9993C7.37598 14.5516 9.44626 16.6219 11.9985 16.6219C14.5508 16.6219 16.6211 14.5516 16.6211 11.9993C16.6211 9.44756 14.5508 7.37671 11.9985 7.37671ZM11.9985 14.9976C10.3428 14.9976 9.00026 13.6551 9.00026 11.9993C9.00026 10.3435 10.3428 9.00099 11.9985 9.00099C13.6543 9.00099 14.9968 10.3435 14.9968 11.9993C14.9968 13.6551 13.6543 14.9976 11.9985 14.9976Z"/>
    <path d="M17.8822 7.19404C17.8822 7.79021 17.3991 8.27333 16.8029 8.27333C16.2068 8.27333 15.7236 7.79021 15.7236 7.19404C15.7236 6.59787 16.2068 6.11475 16.8029 6.11475C17.3991 6.11475 17.8822 6.59787 17.8822 7.19404Z"/>
  </symbol>
  <symbol id="arrow_back" viewBox="0 0 24 24">
    <path d="M12.0078 4.68652C12.0934 4.68658 12.1668 4.71285 12.249 4.79492C12.3313 4.88086 12.3574 4.95797 12.3574 5.04395C12.3573 5.13078 12.3308 5.20478 12.249 5.28711L5.8877 11.6484H19.2979C19.4194 11.6485 19.4945 11.6838 19.5586 11.7471C19.6207 11.8084 19.6553 11.8801 19.6553 12C19.6553 12.1199 19.6207 12.1916 19.5586 12.2529C19.4945 12.3162 19.4194 12.3515 19.2979 12.3516H5.8877L12.2432 18.707V18.7061C12.3254 18.7885 12.3537 18.8653 12.3545 18.957V18.958C12.355 19.0245 12.3404 19.0829 12.2988 19.1426L12.2471 19.2041C12.1671 19.2851 12.0939 19.3113 12.0049 19.3105C11.9104 19.3096 11.8321 19.2796 11.749 19.1973L4.80078 12.249C4.74762 12.1949 4.72192 12.1527 4.70996 12.124V12.123C4.69485 12.0867 4.68652 12.0466 4.68652 11.999C4.68655 11.9514 4.69516 11.9123 4.70996 11.877V11.876C4.72183 11.8475 4.74729 11.8051 4.80078 11.751L11.751 4.80078C11.8414 4.71356 11.9211 4.68652 12.0078 4.68652Z" stroke="white"/>
  </symbol>
  <symbol id="arrow_forward" viewBox="0 0 24 24">
    <path d="M11.9951 4.68945C12.0661 4.69012 12.1279 4.70677 12.1895 4.75L12.251 4.80273L19.1992 11.751C19.2524 11.8051 19.2781 11.8473 19.29 11.876V11.877C19.3052 11.9133 19.3135 11.9534 19.3135 12.001C19.3134 12.0486 19.3048 12.0877 19.29 12.123V12.124C19.2782 12.1525 19.2527 12.1948 19.1992 12.249L12.2451 19.1973C12.1538 19.2875 12.0752 19.3135 11.9922 19.3135C11.9115 19.3134 11.8393 19.2889 11.7559 19.2031L11.751 19.1982L11.6992 19.1377C11.6571 19.0781 11.6426 19.02 11.6426 18.9551C11.6426 18.8904 11.6573 18.8328 11.6992 18.7734L11.751 18.7129L18.1123 12.3516H4.70215C4.58005 12.3515 4.50781 12.3164 4.44727 12.2559H4.44629C4.38542 12.195 4.35059 12.122 4.35059 12C4.35059 11.878 4.38542 11.805 4.44629 11.7441H4.44727C4.50782 11.6836 4.58005 11.6485 4.70215 11.6484H18.1123L11.7568 5.29297C11.6955 5.23162 11.6637 5.17322 11.6514 5.1084L11.6455 5.04102C11.6446 4.95107 11.6708 4.87748 11.751 4.79688L11.752 4.7959C11.8321 4.71531 11.9055 4.68868 11.9951 4.68945Z" stroke="white"/>
  </symbol>
  <symbol id="arrow_top" viewBox="0 0 24 24">
    <path d="M4.52051 11.8384C4.52118 11.7675 4.53782 11.7056 4.58105 11.6441L4.63379 11.5826L11.582 4.63434C11.6362 4.58117 11.6783 4.55549 11.707 4.54352H11.708C11.7444 4.5284 11.7844 4.52008 11.832 4.52008C11.8796 4.52011 11.9188 4.52871 11.9541 4.54352H11.9551C11.9836 4.55539 12.0259 4.58082 12.0801 4.63434L19.0283 11.5884C19.1186 11.6798 19.1445 11.7584 19.1445 11.8414C19.1445 11.9221 19.1199 11.9942 19.0342 12.0777L19.0293 12.0826L18.9688 12.1343C18.9091 12.1764 18.8511 12.191 18.7861 12.191C18.7215 12.191 18.6639 12.1762 18.6045 12.1343L18.5439 12.0826L12.1826 5.72125V19.1314C12.1826 19.2535 12.1474 19.3257 12.0869 19.3863V19.3873C12.026 19.4481 11.9531 19.483 11.8311 19.483C11.709 19.483 11.6361 19.4481 11.5752 19.3873V19.3863C11.5147 19.3257 11.4795 19.2535 11.4795 19.1314V5.72125L5.12402 12.0767C5.06267 12.138 5.00427 12.1698 4.93945 12.1822L4.87207 12.188C4.78212 12.189 4.70854 12.1628 4.62793 12.0826L4.62695 12.0816C4.54637 12.0015 4.51973 11.9281 4.52051 11.8384Z" stroke="white"/>
  </symbol>
  <symbol id="call" viewBox="0 0 24 24">
    <path d="M4.11914 3.34473H7.61914C7.80287 3.34474 7.9305 3.39945 8.03516 3.49805C8.12866 3.58614 8.20717 3.70059 8.26562 3.85156L8.31738 4.01465L8.98242 7.02832C9.01509 7.26011 9.00757 7.44511 8.97266 7.5918C8.94151 7.72276 8.87973 7.83104 8.78027 7.92578L8.77344 7.93164L6.25586 10.415L5.97656 10.6904L6.17676 11.0264C6.60349 11.7435 7.05697 12.416 7.53711 13.042C8.01993 13.6715 8.55611 14.2696 9.14453 14.8369C9.75791 15.4701 10.3991 16.0453 11.0684 16.5605C11.7435 17.0804 12.449 17.5353 13.1846 17.9248L13.5156 18.0996L13.7764 17.832L16.1816 15.3643L16.1914 15.3535C16.331 15.2021 16.4776 15.111 16.6338 15.0645C16.7648 15.0256 16.8946 15.012 17.0254 15.0215L17.1572 15.0391L19.9775 15.6631C20.1433 15.7092 20.2751 15.7806 20.3818 15.875L20.4814 15.9775C20.5982 16.1186 20.6553 16.2764 20.6553 16.4707V19.8809C20.6553 20.1178 20.5811 20.2895 20.4375 20.4316C20.2911 20.5766 20.1182 20.6494 19.8867 20.6494C18.0116 20.6494 16.0913 20.1991 14.1221 19.2842C12.1539 18.3698 10.323 17.0691 8.62988 15.376C7.04282 13.7889 5.79979 12.0798 4.89551 10.249L4.71875 9.88086C3.80172 7.90938 3.35059 5.99008 3.35059 4.11914C3.3506 3.94128 3.39186 3.79881 3.47363 3.67773L3.56934 3.56348C3.71339 3.41863 3.88514 3.34473 4.11914 3.34473ZM4.06641 4.5752C4.09734 5.28818 4.20935 6.0365 4.39941 6.81836C4.59098 7.60639 4.8907 8.47618 5.29492 9.4248L5.58398 10.1035L6.10742 9.58301L8.12695 7.5752L8.32031 7.38281L8.2627 7.11621L7.69434 4.44922L7.60938 4.05371H4.04395L4.06641 4.5752ZM19.9463 16.377L19.5479 16.2949L17.0625 15.7803L16.791 15.7246L16.5986 15.9248L14.6357 17.9824L14.1543 18.4863L14.7871 18.7812C15.482 19.1045 16.2354 19.3664 17.0449 19.5693C17.8556 19.7725 18.6478 19.8945 19.4209 19.9336L19.9463 19.96V16.377Z" stroke="white"/>
  </symbol>
  <symbol id="chevron_down" viewBox="0 0 24 24">
    <path d="M19.5 8.85254C19.4993 8.92349 19.4827 8.98534 19.4395 9.04687L19.3867 9.1084L12.4385 16.0566C12.3843 16.1098 12.3422 16.1355 12.3135 16.1475L12.3125 16.1475C12.2762 16.1626 12.2361 16.1709 12.1885 16.1709C12.1409 16.1709 12.1017 16.1623 12.0664 16.1475L12.0654 16.1475C12.037 16.1356 11.9946 16.1102 11.9404 16.0566L4.99219 9.10254C4.90192 9.01118 4.87598 8.93257 4.87598 8.84961C4.87606 8.76891 4.90059 8.69675 4.98633 8.61328L4.99121 8.6084L5.05176 8.55664C5.11136 8.51454 5.16942 8.50001 5.23437 8.5C5.29902 8.5 5.35665 8.51477 5.41602 8.55664L5.47656 8.6084L10.9873 14.1191L11.8379 14.957L12.1885 15.3018L12.5391 14.957L13.3916 14.1191L18.8965 8.61426C18.9578 8.55294 19.0162 8.52116 19.0811 8.50879L19.1484 8.50293C19.2384 8.50202 19.312 8.52818 19.3926 8.6084L19.3936 8.60937C19.4741 8.68952 19.5008 8.76288 19.5 8.85254Z" stroke="white"/>
  </symbol>
  <symbol id="close" viewBox="0 0 24 24">
    <path d="M17.5996 5.92499C17.7639 5.92499 17.8659 5.97349 17.9463 6.05389C18.0265 6.1342 18.0751 6.23569 18.0752 6.3996C18.0752 6.5638 18.0266 6.66589 17.9463 6.74628L12.6924 12.0002L13.0459 12.3537L17.9463 17.2531C18.0267 17.3335 18.0752 17.4356 18.0752 17.5998C18.0752 17.7641 18.0267 17.8661 17.9463 17.9465C17.8659 18.0269 17.7639 18.0754 17.5996 18.0754C17.4355 18.0753 17.3333 18.0268 17.2529 17.9465L12.3535 13.0461L12 12.6926L6.74609 17.9465C6.66571 18.0268 6.56362 18.0754 6.39941 18.0754C6.23551 18.0753 6.13402 18.0267 6.05371 17.9465C5.97331 17.8661 5.9248 17.7641 5.9248 17.5998C5.92484 17.4356 5.97334 17.3335 6.05371 17.2531L11.3066 12.0002L10.9531 11.6467L6.05371 6.74628C5.97331 6.66587 5.9248 6.56387 5.9248 6.3996C5.92488 6.23556 5.97337 6.13423 6.05371 6.05389C6.13405 5.97356 6.23537 5.92506 6.39941 5.92499C6.56368 5.92499 6.66569 5.97349 6.74609 6.05389L11.6465 10.9533L12 11.3068L17.2529 6.05389C17.3333 5.97352 17.4355 5.92503 17.5996 5.92499Z" stroke="white"/>
  </symbol>
  <symbol id="eco" viewBox="0 0 24 24" fill="currentColor">
    <path d="M5.22334 19.7267C4.477 18.9607 3.89492 18.0753 3.47709 17.0705C3.05942 16.0658 2.85059 15.0383 2.85059 13.988C2.85059 12.7595 3.06709 11.6321 3.50009 10.6057C3.93309 9.57941 4.57859 8.63724 5.43659 7.77924C6.50975 6.71007 8.03959 5.94099 10.0261 5.47199C12.0128 5.00299 14.4503 4.80216 17.3386 4.86949C17.7118 4.88616 18.0517 4.96182 18.3583 5.09649C18.6648 5.23099 18.9423 5.41857 19.1908 5.65924C19.4342 5.90307 19.6271 6.17841 19.7696 6.48524C19.9119 6.79207 19.9906 7.13416 20.0056 7.51149C20.0516 8.95566 20.0329 10.2896 19.9496 11.5132C19.8663 12.7371 19.7038 13.851 19.4621 14.855C19.2204 15.8588 18.9045 16.7522 18.5143 17.535C18.1242 18.3177 17.6533 18.9855 17.1018 19.5385C16.252 20.3923 15.3267 21.04 14.3258 21.4815C13.325 21.9228 12.2571 22.1435 11.1221 22.1435C9.94942 22.1435 8.876 21.9487 7.90184 21.559C6.9275 21.1693 6.03467 20.5586 5.22334 19.7267ZM7.93009 19.5712C8.34942 19.8546 8.83342 20.0692 9.38209 20.2152C9.93075 20.3612 10.5097 20.4342 11.1188 20.4342C11.9948 20.4342 12.8453 20.2519 13.6701 19.8872C14.4948 19.5226 15.2428 18.9962 15.9143 18.3082C16.3922 17.8262 16.7904 17.2008 17.1091 16.432C17.4278 15.6632 17.6811 14.776 17.8691 13.7705C18.0571 12.7648 18.1785 11.6559 18.2333 10.4437C18.288 9.23157 18.284 7.94324 18.2213 6.57874C16.6667 6.54141 15.2724 6.56124 14.0386 6.63824C12.8049 6.71524 11.7161 6.85374 10.7721 7.05374C9.82809 7.25374 9.01842 7.50891 8.34309 7.81924C7.66775 8.12957 7.11934 8.50374 6.69784 8.94174C6.00984 9.64257 5.4805 10.3917 5.10984 11.189C4.73917 11.9863 4.55384 12.7942 4.55384 13.6125C4.55384 14.3953 4.71967 15.2207 5.05134 16.0885C5.38317 16.9563 5.79967 17.6549 6.30084 18.1842C7.159 16.5747 8.19875 15.128 9.42009 13.844C10.6416 12.56 11.9599 11.533 13.3751 10.763C11.9411 12.017 10.7761 13.3712 9.88009 14.8255C8.98392 16.2798 8.33392 17.8617 7.93009 19.5712Z"/>
  </symbol>
  <symbol id="floor_lamp" viewBox="0 0 24 24" fill="currentColor">
    <path d="M12.0205 18.994C11.779 18.994 11.5774 18.9122 11.4157 18.7485C11.254 18.5848 11.1732 18.3828 11.1732 18.1425V11H5.71795C5.42445 11 5.19045 10.8819 5.01595 10.6457C4.84145 10.4094 4.80187 10.1567 4.8972 9.88749L7.01145 3.01999C7.12912 2.66366 7.33945 2.37466 7.64245 2.15299C7.94545 1.93149 8.2842 1.82074 8.6587 1.82074H15.3912C15.7657 1.82074 16.1045 1.93149 16.4075 2.15299C16.7105 2.37466 16.9208 2.66366 17.0385 3.01999L19.1587 9.88749C19.25 10.1567 19.2085 10.4094 19.034 10.6457C18.8595 10.8819 18.6255 11 18.332 11H12.8767V18.1425C12.8767 18.3828 12.7944 18.5848 12.6297 18.7485C12.4652 18.9122 12.2621 18.994 12.0205 18.994ZM6.85545 9.29074H17.1945L15.4162 3.52399H8.6337L6.85545 9.29074ZM9.02495 22.2032C8.78462 22.2032 8.58262 22.121 8.41895 21.9565C8.25512 21.792 8.1732 21.5869 8.1732 21.3412C8.1732 21.0996 8.25512 20.898 8.41895 20.7365C8.58262 20.5748 8.78462 20.494 9.02495 20.494H15.025C15.2653 20.494 15.4673 20.5762 15.631 20.7407C15.7948 20.9052 15.8767 21.1083 15.8767 21.35C15.8767 21.5957 15.7948 21.7992 15.631 21.9607C15.4673 22.1224 15.2653 22.2032 15.025 22.2032H9.02495Z"/>
  </symbol>
  <symbol id="location_on" viewBox="0 0 24 24">
    <path d="M12 2.34473C14.0243 2.34473 15.803 3.04933 17.3555 4.47754C18.879 5.87913 19.6553 7.7626 19.6553 10.1826C19.6552 11.1679 19.4383 12.1526 18.9961 13.1406C18.5426 14.154 17.9735 15.1246 17.2881 16.0527C16.5967 16.9889 15.8459 17.8627 15.0352 18.6738C14.2121 19.4974 13.4448 20.2259 12.7334 20.8594L12.7275 20.8643L12.7227 20.8691C12.6321 20.9548 12.5276 21.017 12.4053 21.0566C12.2588 21.1041 12.1216 21.126 11.9922 21.126C11.8629 21.126 11.7293 21.104 11.5898 21.0576C11.4741 21.0191 11.376 20.959 11.29 20.875L11.2812 20.8662L11.2715 20.8584C10.5565 20.2252 9.78753 19.497 8.96484 18.6738C8.1541 17.8627 7.40327 16.9889 6.71191 16.0527C6.02666 15.1248 5.45823 14.1547 5.00684 13.1416C4.56647 12.1534 4.35064 11.1682 4.35059 10.1826C4.35059 7.76231 5.12671 5.8791 6.64844 4.47754C8.19877 3.04953 9.97573 2.34475 12 2.34473ZM12 3.05371C10.0648 3.05371 8.40993 3.72261 7.06836 5.05664C5.71878 6.39887 5.05371 8.12233 5.05371 10.1826C5.05382 11.6021 5.64762 13.1413 6.75195 14.7861C7.85681 16.4317 9.49748 18.2606 11.6592 20.2715L11.9961 20.585L12.3359 20.2764C14.5487 18.2689 16.2063 16.4381 17.2891 14.7852C18.3679 13.138 18.9462 11.5989 18.9463 10.1826C18.9463 8.12228 18.2813 6.39888 16.9316 5.05664V5.05566C15.5898 3.72177 13.9351 3.05375 12 3.05371ZM11.998 8.70215C12.3642 8.7022 12.662 8.82522 12.9189 9.08105C13.1751 9.33617 13.2979 9.63248 13.2979 9.99805C13.2978 10.3642 13.1749 10.6605 12.9199 10.915C12.6651 11.1694 12.3684 11.292 12.002 11.292C11.6349 11.2919 11.3392 11.169 11.085 10.916C10.8314 10.6634 10.7081 10.3691 10.708 10.0029C10.708 9.68146 10.8023 9.41279 10.9961 9.17871L11.085 9.08105C11.3379 8.82567 11.6325 8.70215 11.998 8.70215Z" stroke="white"/>
  </symbol>
  <symbol id="mail" viewBox="0 0 24 24">
    <path d="M3.05371 5.74219V18.9463H20.9463V6.13867L20.1709 6.64844L12.2148 11.8867C12.1545 11.9184 12.1021 11.944 12.0566 11.9619C12.0535 11.9629 12.0367 11.9678 12 11.9678C11.9627 11.9678 11.9461 11.9628 11.9434 11.9619C11.8977 11.9439 11.8449 11.9186 11.7842 11.8867L4.05371 6.7959V6.39648L11.7266 11.4219L12 11.6016L12.2734 11.4229L20.6201 5.97266L21.6309 5.31152C21.6465 5.38933 21.6553 5.46973 21.6553 5.55371V18.4463C21.6553 18.7675 21.543 19.041 21.2939 19.2891C21.0451 19.5371 20.7703 19.6494 20.4463 19.6494H3.55371C3.23199 19.6494 2.95881 19.5371 2.71094 19.2891L2.62402 19.1953C2.43636 18.9725 2.35059 18.7279 2.35059 18.4463V5.55371C2.3506 5.46519 2.35965 5.38047 2.37695 5.29883L3.05371 5.74219ZM3.55371 4.34473H20.4463C20.7697 4.34473 21.0439 4.4579 21.293 4.70703H21.2939C21.4036 4.81669 21.4851 4.93216 21.5439 5.05371H2.46094C2.51962 4.93172 2.60139 4.81595 2.71094 4.70605H2.71191C2.95988 4.45718 3.23264 4.34476 3.55371 4.34473Z" stroke="white"/>
  </symbol>
  <symbol id="menu" viewBox="0 0 24 24">
    <path d="M3.70234 18.2212C3.46184 18.2212 3.25975 18.139 3.09609 17.9745C2.93242 17.81 2.85059 17.6049 2.85059 17.3592C2.85059 17.1176 2.93242 16.9159 3.09609 16.7542C3.25975 16.5927 3.46184 16.512 3.70234 16.512H20.2978C20.5383 16.512 20.7414 16.5942 20.9071 16.7587C21.0728 16.9232 21.1556 17.1263 21.1556 17.368C21.1556 17.6137 21.0728 17.8172 20.9071 17.9787C20.7414 18.1404 20.5383 18.2212 20.2978 18.2212H3.70234ZM3.70234 12.8517C3.46184 12.8517 3.25975 12.7694 3.09609 12.6047C2.93242 12.4402 2.85059 12.2372 2.85059 11.9955C2.85059 11.754 2.93242 11.5524 3.09609 11.3907C3.25975 11.2291 3.46184 11.1482 3.70234 11.1482H20.2978C20.5383 11.1482 20.7414 11.2306 20.9071 11.3952C21.0728 11.5597 21.1556 11.7628 21.1556 12.0045C21.1556 12.246 21.0728 12.4476 20.9071 12.6092C20.7414 12.7709 20.5383 12.8517 20.2978 12.8517H3.70234ZM3.70234 7.488C3.46184 7.488 3.25975 7.40575 3.09609 7.24125C2.93242 7.07675 2.85059 6.87166 2.85059 6.626C2.85059 6.38433 2.93242 6.18275 3.09609 6.02125C3.25975 5.85958 3.46184 5.77875 3.70234 5.77875H20.2978C20.5383 5.77875 20.7414 5.861 20.9071 6.0255C21.0728 6.19 21.1556 6.39308 21.1556 6.63475C21.1556 6.88041 21.0728 7.08408 20.9071 7.24575C20.7414 7.40725 20.5383 7.488 20.2978 7.488H3.70234Z"/>
  </symbol>
  <symbol id="star" viewBox="0 0 20 19">
    <path d="M10.0078 1.00098L12.0361 5.81934C12.328 6.51225 12.9837 6.97813 13.7275 7.03711L18.9854 7.45312L14.9893 10.835H14.9883C14.4157 11.3197 14.1618 12.086 14.3389 12.8193L15.5615 17.8848C15.5599 17.8857 15.5589 17.8872 15.5576 17.8877C15.5559 17.8869 15.5532 17.8858 15.5498 17.8838L11.041 15.1631C10.4014 14.7772 9.59865 14.7772 8.95898 15.1631L4.4502 17.8838C4.44677 17.8858 4.4441 17.8869 4.44238 17.8877C4.44085 17.8871 4.43936 17.8859 4.4375 17.8848L5.66113 12.8193C5.8271 12.1321 5.61431 11.416 5.11523 10.9297L5.01172 10.835L1.01367 7.45312L6.27246 7.03711C7.01627 6.97814 7.67205 6.51246 7.96387 5.81934L9.99121 1.00098C9.99362 1.00054 9.99658 1 10 1C10.003 1 10.0056 1.00062 10.0078 1.00098Z" stroke="#CE4D46" stroke-width="2"/>
  </symbol>
  <symbol id="view_comfy" viewBox="0 0 24 24" fill="currentColor">
    <path d="M1.85059 18.4463V5.55376C1.85059 5.08376 2.01734 4.68143 2.35084 4.34676C2.6845 4.01193 3.0855 3.84451 3.55384 3.84451H20.4463C20.9163 3.84451 21.3187 4.01193 21.6533 4.34676C21.9882 4.68143 22.1556 5.08376 22.1556 5.55376V18.4463C22.1556 18.9146 21.9882 19.3156 21.6533 19.6493C21.3187 19.9828 20.9163 20.1495 20.4463 20.1495H3.55384C3.0855 20.1495 2.6845 19.9828 2.35084 19.6493C2.01734 19.3156 1.85059 18.9146 1.85059 18.4463ZM20.4463 11.25V5.55376H3.55384V11.25H20.4463ZM9.58709 18.4463H20.4463V12.75H9.58709V18.4463ZM3.55384 18.4463H8.08709V12.75H3.55384V18.4463Z"/>
  </symbol>
  <symbol id="icon-logo" viewBox="0 0 145 41">
    <path d="M78.873 35.31v-1.088l1.407-.242v-6.672l-1.407-.242V25.97h4.506v1.096l-1.407.242v5.274l.052.017 4.118-6.63h3.107v1.097l-1.407.242v6.672l1.407.242v1.088h-4.514v-1.088l1.407-.242v-5.283l-.052-.017-4.118 6.63zm5.24-10.98q-1.251 0-1.968-.674-.716-.681-.716-1.76l.017-.053h1.295q0 .622.328 1.01.336.39 1.044.389.69 0 1.027-.389.337-.388.337-1.01h1.303l.018.052q-.01 1.08-.725 1.761-.708.673-1.96.673M73.957 35.491q-1.294 0-2.253-.587a4 4 0 0 1-1.485-1.649q-.518-1.053-.518-2.434v-.38q0-1.329.544-2.374.553-1.053 1.459-1.657a3.5 3.5 0 0 1 1.994-.613q1.26 0 2.106.518.855.517 1.287 1.459.43.932.431 2.2v1.063h-6.06l-.026.043q.017.897.311 1.597.303.69.863 1.087.561.398 1.347.398.864 0 1.51-.242a3.5 3.5 0 0 0 1.132-.682l.664 1.105q-.5.483-1.33.82-.82.328-1.976.328m-2.443-5.784h4.308v-.224q0-.674-.242-1.2a1.84 1.84 0 0 0-.708-.837q-.466-.311-1.174-.311-.57 0-1.036.337a2.5 2.5 0 0 0-.768.897q-.303.57-.397 1.295zm-7.696 5.603v-1.088l1.407-.242v-2.002a8 8 0 0 1-1.019.19q-.517.06-1.096.06-1.122 0-1.934-.397a2.78 2.78 0 0 1-1.243-1.183q-.431-.784-.431-1.942V27.29l-1.408-.241V25.96h4.515v1.088l-1.407.241v1.416q0 .743.207 1.226.216.483.64.716.43.233 1.06.233.57 0 1.089-.06a9 9 0 0 0 1.027-.199v-3.314l-1.407-.242V25.97h4.514v1.096l-1.407.242v6.672l1.407.242v1.088zm-10.363.181q-1.296 0-2.253-.587a4 4 0 0 1-1.485-1.649q-.518-1.053-.518-2.434v-.38q0-1.329.544-2.374.552-1.053 1.459-1.657a3.5 3.5 0 0 1 1.994-.613q1.26 0 2.106.518.854.517 1.286 1.459.432.932.432 2.2v1.063h-6.06l-.026.043q.017.897.31 1.597.303.69.864 1.087.561.398 1.347.398.862 0 1.51-.242a3.5 3.5 0 0 0 1.131-.682l.665 1.105q-.5.483-1.33.82-.82.328-1.976.328m-2.443-5.784h4.307v-.224q0-.674-.242-1.2a1.84 1.84 0 0 0-.707-.837q-.467-.311-1.174-.311-.57 0-1.036.337a2.5 2.5 0 0 0-.769.897q-.301.57-.397 1.295zM37.524 35.31v-1.088l1.407-.242v-6.672l-1.407-.242V25.97H47.9v1.096l-1.407.242v6.672l1.407.242v1.088h-4.515v-1.088l1.407-.242v-6.664h-4.16v6.664l1.407.242v1.088zm87.912-14.987v-1.088l1.226-.181 1.597-2.607q-.889-.32-1.373-1.01-.474-.69-.474-1.597 0-.846.431-1.485.431-.647 1.235-1.01.811-.362 1.916-.362h5.352v1.096l-1.407.242v6.673l1.407.241v1.088h-4.515v-1.088l1.407-.241v-2.297h-2.304l-2.21 3.626zm4.385-4.964h2.417v-3.056h-2.244q-.924 0-1.398.467a1.46 1.46 0 0 0-.475 1.087q0 .622.423 1.062.432.44 1.277.44m-15.982 4.964v-1.088l1.407-.241V12.32l-1.407-.242v-1.096h4.515v1.096l-1.407.242v2.702h4.152V12.32l-1.407-.242v-1.096h4.523v1.096l-1.407.242v6.673l1.407.241v1.088h-4.523v-1.088l1.407-.241v-2.642h-4.152v2.642l1.407.241v1.088zm-10.984 3.591v-1.096l1.321-.242V12.32l-1.407-.242v-1.096h2.866l.155 1.14a3.16 3.16 0 0 1 1.131-.976q.673-.337 1.554-.337 1.157 0 1.976.63.82.622 1.252 1.753.432 1.122.432 2.632v.182q0 1.346-.44 2.356-.432 1.01-1.244 1.58-.81.561-1.95.561-.863 0-1.52-.285a3 3 0 0 1-1.105-.863v3.22l1.485.242v1.096zm5.119-4.74q1.209 0 1.83-.88.621-.881.622-2.287v-.182q0-1.07-.277-1.881-.276-.82-.828-1.287-.545-.466-1.364-.466-.726 0-1.243.328a2.46 2.46 0 0 0-.838.898v4.55q.32.578.829.897.517.31 1.269.31m-9.579 1.33q-1.295 0-2.253-.587a4 4 0 0 1-1.484-1.649q-.519-1.053-.518-2.434v-.38q0-1.329.543-2.374.553-1.053 1.46-1.657a3.5 3.5 0 0 1 1.993-.613q1.26 0 2.107.518.854.518 1.286 1.459.431.932.431 2.201v1.062H95.9l-.025.043q.017.898.31 1.597.303.69.864 1.088.561.396 1.346.397.864 0 1.511-.242a3.5 3.5 0 0 0 1.131-.682l.664 1.105q-.5.483-1.329.82-.82.328-1.977.328m-2.443-5.784h4.308v-.224q0-.673-.242-1.2a1.84 1.84 0 0 0-.708-.837q-.465-.31-1.174-.31-.57 0-1.035.336a2.5 2.5 0 0 0-.769.898q-.302.569-.397 1.294zm-9.008 5.603v-1.088l1.407-.241v-6.69h-1.969l-.129 1.458h-1.45v-2.78h8.84v2.78h-1.46l-.13-1.459h-2.002v6.69l1.407.242v1.088zm-6.997.181q-1.27 0-2.21-.587a4 4 0 0 1-1.46-1.649q-.516-1.053-.517-2.434v-.362q0-1.33.5-2.383a4 4 0 0 1 1.442-1.666q.942-.613 2.245-.613 1.13 0 1.977.371.855.371 1.432 1.019l.044 2.244h-1.33l-.293-1.631a2.15 2.15 0 0 0-.734-.484 2.7 2.7 0 0 0-1.036-.18q-.759 0-1.338.448-.57.45-.889 1.2t-.32 1.675v.362q0 1.02.294 1.77.302.75.855 1.165.561.405 1.329.406.863 0 1.433-.475t.7-1.303h1.527l.017.051a3.14 3.14 0 0 1-.474 1.502q-.432.699-1.235 1.131-.794.423-1.96.423m-15.895-.181v-1.088l1.407-.241V12.32l-1.407-.242v-1.096h4.506v1.096l-1.407.242v5.274l.052.017 4.118-6.63h3.107v1.097l-1.407.242v6.673l1.407.241v1.088h-4.514v-1.088l1.407-.241V13.71l-.052-.018-4.118 6.63zm5.24-10.98q-1.251 0-1.968-.674-.716-.681-.716-1.76l.017-.053h1.295q0 .622.328 1.01.336.39 1.044.389.69 0 1.027-.389.337-.388.337-1.01h1.304l.017.052q-.01 1.08-.725 1.761-.708.674-1.96.674M57.28 20.504q-1.46 0-2.22-.708-.759-.716-.759-2.011 0-1.33 1.088-2.132 1.088-.812 3.02-.812h1.667v-.915q0-.846-.518-1.312-.51-.466-1.442-.466-.586 0-1.018.147a2.9 2.9 0 0 0-.786.388l-.181 1.304h-1.312v-2.141q.63-.51 1.467-.768a6 6 0 0 1 1.856-.268q1.7 0 2.668.811.966.812.966 2.323v4.851q.01.172.026.345l.907.095v1.088h-2.443q-.078-.38-.121-.682a7 7 0 0 1-.06-.604q-.492.63-1.235 1.053a3.15 3.15 0 0 1-1.57.414m.25-1.424q.845 0 1.545-.406t1.001-.975v-1.692h-1.727q-1.174 0-1.76.56-.588.562-.587 1.253 0 .613.38.94.38.32 1.147.32m-20.031 1.243v-1.088l1.407-.242v-9.9l-1.407-.242V7.754h3.677l4.05 9.539h.051l3.919-9.539h3.79v1.097l-1.407.241v9.901l1.407.242v1.088H48.47v-1.088l1.485-.242v-8.917l-.044-.008-4.083 9.806h-1.13l-4.222-9.79-.043.01.06 5.257v3.642l1.52.242v1.088z"/>
    <g clip-path="url(#a)">
      <path d="M5.2 12.976a24.3 24.3 0 0 1 1.995 4.745c.368 1.23.602 2.375.748 3.401 1.256-1.231 2.752-3.019 3.84-5.416 2.838-6.247.837-12.062.1-13.92 1.664.698 4.237 2.031 6.485 4.476 4.406 4.794 4.322 10.341 4.239 11.906a10.9 10.9 0 0 0 1.895-2.596 10 10 0 0 0 1.047-3.268c4.908 6.208 5.47 13.777 1.546 18.844-.42.54-4.938 6.182-12.02 5.729-4.767-.304-7.74-3.182-8.229-3.67-2.657-2.653-3.572-6.221-3.192-9.086.335-2.523 1.538-3.456 1.796-6.893a16.2 16.2 0 0 0-.25-4.252"/>
      <path d="M15.874 8.858c.151 2.982-.506 5.124-1.098 6.49-1.567 3.618-4 4.859-5.436 8.862a14.7 14.7 0 0 0-.848 4.432 6.7 6.7 0 0 0-.798-1.612 7.3 7.3 0 0 0-1.546-1.656c-.095 1.382-.089 4.498 1.995 7.43.612.861 1.617 2.24 3.591 3.178a9.5 9.5 0 0 0 3.093.85c2.33 0 4.214-.359 4.737-.492 2.135-.544 3.49-2.913 4.289-4.31 2.343-4.1 2.464-8.272 2.244-10.908a16.6 16.6 0 0 1-1.446 3.626 17.6 17.6 0 0 1-1.795 2.685 14.7 14.7 0 0 0-1.197-3.446c-1.045-2.117-1.853-2.478-2.793-4.297-.78-1.51-.625-2.038-1.397-5.282a63 63 0 0 0-1.595-5.55"/>
      <path d="M11.635 23.673c-.014.695-.08 1.729-.35 2.954-.445 2.023-.953 2.344-1.197 3.76-.14.818-.6 3.482 1.197 5.147 1.338 1.241 3.258 1.352 4.289 1.388.851.03 3.138.064 4.738-1.208 2.543-2.022 2.022-6.392.548-9.042-.91-1.64-1.744-1.825-2.843-3.939a13.2 13.2 0 0 1-1.396-4.655 11 11 0 0 0-.698 3.268c-.153 2.79.89 4.162.1 6.087-.26.632-.78 1.48-1.945 2.327a7.9 7.9 0 0 0-.35-2.64c-.52-1.67-1.483-2.825-2.093-3.447"/>
    </g>
    <defs>
      <clipPath id="a">
        <path d="M3.571 1.786h26.786V37.5H3.571z"/>
      </clipPath>
    </defs>
  </symbol>
  </symbol>
  <symbol id="eco" viewBox="0 0 24 24">
    <path d="M5.22334 19.7267C4.477 18.9607 3.89492 18.0753 3.47709 17.0705C3.05942 16.0658 2.85059 15.0383 2.85059 13.988C2.85059 12.7595 3.06709 11.6321 3.50009 10.6057C3.93309 9.57941 4.57859 8.63724 5.43659 7.77924C6.50975 6.71007 8.03959 5.94099 10.0261 5.47199C12.0128 5.00299 14.4503 4.80216 17.3386 4.86949C17.7118 4.88616 18.0517 4.96182 18.3583 5.09649C18.6648 5.23099 18.9423 5.41857 19.1908 5.65924C19.4342 5.90307 19.6271 6.17841 19.7696 6.48524C19.9119 6.79207 19.9906 7.13416 20.0056 7.51149C20.0516 8.95566 20.0329 10.2896 19.9496 11.5132C19.8663 12.7371 19.7038 13.851 19.4621 14.855C19.2204 15.8588 18.9045 16.7522 18.5143 17.535C18.1242 18.3177 17.6533 18.9855 17.1018 19.5385C16.252 20.3923 15.3267 21.04 14.3258 21.4815C13.325 21.9228 12.2571 22.1435 11.1221 22.1435C9.94942 22.1435 8.876 21.9487 7.90184 21.559C6.9275 21.1693 6.03467 20.5586 5.22334 19.7267ZM7.93009 19.5712C8.34942 19.8546 8.83342 20.0692 9.38209 20.2152C9.93075 20.3612 10.5097 20.4342 11.1188 20.4342C11.9948 20.4342 12.8453 20.2519 13.6701 19.8872C14.4948 19.5226 15.2428 18.9962 15.9143 18.3082C16.3922 17.8262 16.7904 17.2008 17.1091 16.432C17.4278 15.6632 17.6811 14.776 17.8691 13.7705C18.0571 12.7648 18.1785 11.6559 18.2333 10.4437C18.288 9.23157 18.284 7.94324 18.2213 6.57874C16.6667 6.54141 15.2724 6.56124 14.0386 6.63824C12.8049 6.71524 11.7161 6.85374 10.7721 7.05374C9.82809 7.25374 9.01842 7.50891 8.34309 7.81924C7.66775 8.12957 7.11934 8.50374 6.69784 8.94174C6.00984 9.64257 5.4805 10.3917 5.10984 11.189C4.73917 11.9863 4.55384 12.7942 4.55384 13.6125C4.55384 14.3953 4.71967 15.2207 5.05134 16.0885C5.38317 16.9563 5.79967 17.6549 6.30084 18.1842C7.159 16.5747 8.19875 15.128 9.42009 13.844C10.6416 12.56 11.9599 11.533 13.3751 10.763C11.9411 12.017 10.7761 13.3712 9.88009 14.8255C8.98392 16.2798 8.33392 17.8617 7.93009 19.5712Z"/>
  </symbol>
  <symbol id="floor_lamp" viewBox="0 0 24 24">
    <path d="M12.0205 18.994C11.779 18.994 11.5774 18.9122 11.4157 18.7485C11.254 18.5848 11.1732 18.3828 11.1732 18.1425V11H5.71795C5.42445 11 5.19045 10.8819 5.01595 10.6457C4.84145 10.4094 4.80187 10.1567 4.8972 9.88749L7.01145 3.01999C7.12912 2.66366 7.33945 2.37466 7.64245 2.15299C7.94545 1.93149 8.2842 1.82074 8.6587 1.82074H15.3912C15.7657 1.82074 16.1045 1.93149 16.4075 2.15299C16.7105 2.37466 16.9208 2.66366 17.0385 3.01999L19.1587 9.88749C19.25 10.1567 19.2085 10.4094 19.034 10.6457C18.8595 10.8819 18.6255 11 18.332 11H12.8767V18.1425C12.8767 18.3828 12.7944 18.5848 12.6297 18.7485C12.4652 18.9122 12.2621 18.994 12.0205 18.994ZM6.85545 9.29074H17.1945L15.4162 3.52399H8.6337L6.85545 9.29074ZM9.02495 22.2032C8.78462 22.2032 8.58262 22.121 8.41895 21.9565C8.25512 21.792 8.1732 21.5869 8.1732 21.3412C8.1732 21.0996 8.25512 20.898 8.41895 20.7365C8.58262 20.5748 8.78462 20.494 9.02495 20.494H15.025C15.2653 20.494 15.4673 20.5762 15.631 20.7407C15.7948 20.9052 15.8767 21.1083 15.8767 21.35C15.8767 21.5957 15.7948 21.7992 15.631 21.9607C15.4673 22.1224 15.2653 22.2032 15.025 22.2032H9.02495Z"/>
  </symbol>
  <symbol id="location_on" viewBox="0 0 24 24">
    <path d="M12 2.34473C14.0243 2.34473 15.803 3.04933 17.3555 4.47754C18.879 5.87913 19.6553 7.7626 19.6553 10.1826C19.6552 11.1679 19.4383 12.1526 18.9961 13.1406C18.5426 14.154 17.9735 15.1246 17.2881 16.0527C16.5967 16.9889 15.8459 17.8627 15.0352 18.6738C14.2121 19.4974 13.4448 20.2259 12.7334 20.8594L12.7275 20.8643L12.7227 20.8691C12.6321 20.9548 12.5276 21.017 12.4053 21.0566C12.2588 21.1041 12.1216 21.126 11.9922 21.126C11.8629 21.126 11.7293 21.104 11.5898 21.0576C11.4741 21.0191 11.376 20.959 11.29 20.875L11.2812 20.8662L11.2715 20.8584C10.5565 20.2252 9.78753 19.497 8.96484 18.6738C8.1541 17.8627 7.40327 16.9889 6.71191 16.0527C6.02666 15.1248 5.45823 14.1547 5.00684 13.1416C4.56647 12.1534 4.35064 11.1682 4.35059 10.1826C4.35059 7.76231 5.12671 5.8791 6.64844 4.47754C8.19877 3.04953 9.97573 2.34475 12 2.34473ZM12 3.05371C10.0648 3.05371 8.40993 3.72261 7.06836 5.05664C5.71878 6.39887 5.05371 8.12233 5.05371 10.1826C5.05382 11.6021 5.64762 13.1413 6.75195 14.7861C7.85681 16.4317 9.49748 18.2606 11.6592 20.2715L11.9961 20.585L12.3359 20.2764C14.5487 18.2689 16.2063 16.4381 17.2891 14.7852C18.3679 13.138 18.9462 11.5989 18.9463 10.1826C18.9463 8.12228 18.2813 6.39888 16.9316 5.05664V5.05566C15.5898 3.72177 13.9351 3.05375 12 3.05371ZM11.998 8.70215C12.3642 8.7022 12.662 8.82522 12.9189 9.08105C13.1751 9.33617 13.2979 9.63248 13.2979 9.99805C13.2978 10.3642 13.1749 10.6605 12.9199 10.915C12.6651 11.1694 12.3684 11.292 12.002 11.292C11.6349 11.2919 11.3392 11.169 11.085 10.916C10.8314 10.6634 10.7081 10.3691 10.708 10.0029C10.708 9.68146 10.8023 9.41279 10.9961 9.17871L11.085 9.08105C11.3379 8.82567 11.6325 8.70215 11.998 8.70215Z" stroke="white"/>
  </symbol>
  <symbol id="mail" viewBox="0 0 24 24">
    <path d="M3.05371 5.74219V18.9463H20.9463V6.13867L20.1709 6.64844L12.2148 11.8867C12.1545 11.9184 12.1021 11.944 12.0566 11.9619C12.0535 11.9629 12.0367 11.9678 12 11.9678C11.9627 11.9678 11.9461 11.9628 11.9434 11.9619C11.8977 11.9439 11.8449 11.9186 11.7842 11.8867L4.05371 6.7959V6.39648L11.7266 11.4219L12 11.6016L12.2734 11.4229L20.6201 5.97266L21.6309 5.31152C21.6465 5.38933 21.6553 5.46973 21.6553 5.55371V18.4463C21.6553 18.7675 21.543 19.041 21.2939 19.2891C21.0451 19.5371 20.7703 19.6494 20.4463 19.6494H3.55371C3.23199 19.6494 2.95881 19.5371 2.71094 19.2891L2.62402 19.1953C2.43636 18.9725 2.35059 18.7279 2.35059 18.4463V5.55371C2.3506 5.46519 2.35965 5.38047 2.37695 5.29883L3.05371 5.74219ZM3.55371 4.34473H20.4463C20.7697 4.34473 21.0439 4.4579 21.293 4.70703H21.2939C21.4036 4.81669 21.4851 4.93216 21.5439 5.05371H2.46094C2.51962 4.93172 2.60139 4.81595 2.71094 4.70605H2.71191C2.95988 4.45718 3.23264 4.34476 3.55371 4.34473Z" stroke="white"/>
  </symbol>
  <symbol id="menu" viewBox="0 0 24 24">
    <path d="M3.70234 18.2212C3.46184 18.2212 3.25975 18.139 3.09609 17.9745C2.93242 17.81 2.85059 17.6049 2.85059 17.3592C2.85059 17.1176 2.93242 16.9159 3.09609 16.7542C3.25975 16.5927 3.46184 16.512 3.70234 16.512H20.2978C20.5383 16.512 20.7414 16.5942 20.9071 16.7587C21.0728 16.9232 21.1556 17.1263 21.1556 17.368C21.1556 17.6137 21.0728 17.8172 20.9071 17.9787C20.7414 18.1404 20.5383 18.2212 20.2978 18.2212H3.70234ZM3.70234 12.8517C3.46184 12.8517 3.25975 12.7694 3.09609 12.6047C2.93242 12.4402 2.85059 12.2372 2.85059 11.9955C2.85059 11.754 2.93242 11.5524 3.09609 11.3907C3.25975 11.2291 3.46184 11.1482 3.70234 11.1482H20.2978C20.5383 11.1482 20.7414 11.2306 20.9071 11.3952C21.0728 11.5597 21.1556 11.7628 21.1556 12.0045C21.1556 12.246 21.0728 12.4476 20.9071 12.6092C20.7414 12.7709 20.5383 12.8517 20.2978 12.8517H3.70234ZM3.70234 7.488C3.46184 7.488 3.25975 7.40575 3.09609 7.24125C2.93242 7.07675 2.85059 6.87166 2.85059 6.626C2.85059 6.38433 2.93242 6.18275 3.09609 6.02125C3.25975 5.85958 3.46184 5.77875 3.70234 5.77875H20.2978C20.5383 5.77875 20.7414 5.861 20.9071 6.0255C21.0728 6.19 21.1556 6.39308 21.1556 6.63475C21.1556 6.88041 21.0728 7.08408 20.9071 7.24575C20.7414 7.40725 20.5383 7.488 20.2978 7.488H3.70234Z"/>
  </symbol>
  <symbol id="star" viewBox="0 0 20 19">
    <path d="M10.0078 1.00098L12.0361 5.81934C12.328 6.51225 12.9837 6.97813 13.7275 7.03711L18.9854 7.45312L14.9893 10.835H14.9883C14.4157 11.3197 14.1618 12.086 14.3389 12.8193L15.5615 17.8848C15.5599 17.8857 15.5589 17.8872 15.5576 17.8877C15.5559 17.8869 15.5532 17.8858 15.5498 17.8838L11.041 15.1631C10.4014 14.7772 9.59865 14.7772 8.95898 15.1631L4.4502 17.8838C4.44677 17.8858 4.4441 17.8869 4.44238 17.8877C4.44085 17.8871 4.43936 17.8859 4.4375 17.8848L5.66113 12.8193C5.8271 12.1321 5.61431 11.416 5.11523 10.9297L5.01172 10.835L1.01367 7.45312L6.27246 7.03711C7.01627 6.97814 7.67205 6.51246 7.96387 5.81934L9.99121 1.00098C9.99362 1.00054 9.99658 1 10 1C10.003 1 10.0056 1.00062 10.0078 1.00098Z" stroke="#CE4D46" stroke-width="2"/>
  </symbol>
  <symbol id="view_comfy" viewBox="0 0 24 24">
    <path d="M1.85059 18.4463V5.55376C1.85059 5.08376 2.01734 4.68143 2.35084 4.34676C2.6845 4.01193 3.0855 3.84451 3.55384 3.84451H20.4463C20.9163 3.84451 21.3187 4.01193 21.6533 4.34676C21.9882 4.68143 22.1556 5.08376 22.1556 5.55376V18.4463C22.1556 18.9146 21.9882 19.3156 21.6533 19.6493C21.3187 19.9828 20.9163 20.1495 20.4463 20.1495H3.55384C3.0855 20.1495 2.6845 19.9828 2.35084 19.6493C2.01734 19.3156 1.85059 18.9146 1.85059 18.4463ZM20.4463 11.25V5.55376H3.55384V11.25H20.4463ZM9.58709 18.4463H20.4463V12.75H9.58709V18.4463ZM3.55384 18.4463H8.08709V12.75H3.55384V18.4463Z"/>
  </symbol>
  <symbol id="icon-logo" viewBox="0 0 145 41">
    <path d="M78.8734 35.3097V34.222L80.2804 33.9803V27.3076L78.8734 27.0659V25.9696H81.9723H83.3794V27.0659L81.9723 27.3076V32.5819L82.0241 32.5991L86.1417 25.9696H87.8423H89.2494V27.0659L87.8423 27.3076V33.9803L89.2494 34.222V35.3097H84.7347V34.222L86.1417 33.9803V28.6974L86.0899 28.6801L81.9723 35.3097H78.8734ZM84.1131 24.3294C83.2787 24.3294 82.6226 24.105 82.145 23.6561C81.6673 23.2015 81.4285 22.6145 81.4285 21.8951L81.4458 21.8433H82.7406C82.7406 22.2577 82.85 22.5943 83.0686 22.8533C83.2931 23.1123 83.6412 23.2418 84.1131 23.2418C84.5735 23.2418 84.916 23.1123 85.1404 22.8533C85.3648 22.5943 85.4771 22.2577 85.4771 21.8433H86.7805L86.7978 21.8951C86.792 22.6145 86.5503 23.2015 86.0727 23.6561C85.6008 24.105 84.9476 24.3294 84.1131 24.3294Z" fill="white"/>
<path d="M73.957 35.491C73.0938 35.491 72.3428 35.2953 71.704 34.904C71.0652 34.5069 70.5703 33.9573 70.2192 33.2552C69.8739 32.5531 69.7013 31.7417 69.7013 30.8209V30.4411C69.7013 29.5548 69.8826 28.7635 70.2451 28.0672C70.6134 27.3651 71.0997 26.8126 71.704 26.4098C72.314 26.0012 72.9787 25.7969 73.698 25.7969C74.5382 25.7969 75.2403 25.9696 75.8043 26.3148C76.374 26.6601 76.8028 27.1464 77.0905 27.7737C77.3783 28.3952 77.5221 29.129 77.5221 29.9749V31.0367H71.4623L71.4364 31.0799C71.4479 31.6784 71.5515 32.2107 71.7471 32.6768C71.9486 33.1372 72.2363 33.4998 72.6104 33.7645C72.9844 34.0292 73.4333 34.1616 73.957 34.1616C74.5325 34.1616 75.036 34.081 75.4677 33.9199C75.905 33.753 76.282 33.5257 76.5985 33.2379L77.2632 34.3429C76.9294 34.6651 76.4863 34.9385 75.9338 35.1629C75.3871 35.3816 74.7282 35.491 73.957 35.491ZM71.5141 29.7073H75.8216V29.4829C75.8216 29.034 75.741 28.634 75.5799 28.283C75.4245 27.9262 75.1885 27.6471 74.872 27.4457C74.5613 27.2385 74.1699 27.1349 73.698 27.1349C73.3182 27.1349 72.9729 27.2471 72.6622 27.4716C72.3514 27.6903 72.0953 27.9895 71.8939 28.3693C71.6925 28.7491 71.5601 29.1808 71.4968 29.6642L71.5141 29.7073Z" fill="white"/>
<path d="M63.8177 35.3096V34.222L65.2248 33.9803V31.9776C64.891 32.0639 64.5515 32.1272 64.2062 32.1675C63.8609 32.2078 63.4955 32.2279 63.1099 32.2279C62.3618 32.2279 61.7172 32.0956 61.1763 31.8308C60.6353 31.5661 60.221 31.1719 59.9332 30.6482C59.6455 30.1245 59.5016 29.4771 59.5016 28.7059V27.2902L58.0945 27.0485V25.9609H61.2022H62.6092V27.0485L61.2022 27.2902V28.7059C61.2022 29.2009 61.2712 29.6095 61.4093 29.9317C61.5532 30.254 61.7661 30.4928 62.0481 30.6482C62.3359 30.8036 62.6898 30.8813 63.1099 30.8813C63.4897 30.8813 63.8523 30.8611 64.1976 30.8209C64.5429 30.7748 64.8853 30.7086 65.2248 30.6223V27.3075L63.8177 27.0658V25.9695H68.3324V27.0658L66.9254 27.3075V33.9803L68.3324 34.222V35.3096H63.8177Z" fill="white"/>
<path d="M53.4545 35.491C52.5913 35.491 51.8403 35.2953 51.2015 34.904C50.5627 34.5069 50.0678 33.9573 49.7167 33.2552C49.3714 32.5531 49.1988 31.7417 49.1988 30.8209V30.4411C49.1988 29.5548 49.3801 28.7635 49.7426 28.0672C50.1109 27.3651 50.5972 26.8126 51.2015 26.4098C51.8115 26.0012 52.4762 25.7969 53.1955 25.7969C54.0357 25.7969 54.7378 25.9696 55.3018 26.3148C55.8715 26.6601 56.3003 27.1464 56.588 27.7737C56.8758 28.3952 57.0196 29.129 57.0196 29.9749V31.0367H50.9598L50.9339 31.0799C50.9454 31.6784 51.049 32.2107 51.2446 32.6768C51.4461 33.1372 51.7338 33.4998 52.1079 33.7645C52.4819 34.0292 52.9308 34.1616 53.4545 34.1616C54.03 34.1616 54.5335 34.081 54.9652 33.9199C55.4025 33.753 55.7795 33.5257 56.096 33.2379L56.7607 34.3429C56.4269 34.6651 55.9838 34.9385 55.4313 35.1629C54.8846 35.3816 54.2257 35.491 53.4545 35.491ZM51.0116 29.7073H55.3191V29.4829C55.3191 29.034 55.2385 28.634 55.0774 28.283C54.922 27.9262 54.686 27.6471 54.3695 27.4457C54.0588 27.2385 53.6674 27.1349 53.1955 27.1349C52.8157 27.1349 52.4704 27.2471 52.1597 27.4716C51.8489 27.6903 51.5928 27.9895 51.3914 28.3693C51.19 28.7491 51.0576 29.1808 50.9943 29.6642L51.0116 29.7073Z" fill="white"/>
<path d="M37.5241 35.3097V34.222L38.9312 33.9803V27.3076L37.5241 27.0659V25.9696H47.9001V27.0659L46.4931 27.3076V33.9803L47.9001 34.222V35.3097H43.3854V34.222L44.7925 33.9803V27.3162H40.6317V33.9803L42.0388 34.222V35.3097H37.5241Z" fill="white"/>
<path d="M125.436 20.3229V19.2352L126.662 19.0539L128.259 16.447C127.666 16.234 127.209 15.8974 126.886 15.437C126.57 14.9766 126.412 14.4443 126.412 13.84C126.412 13.276 126.556 12.7811 126.843 12.3553C127.131 11.9236 127.542 11.587 128.078 11.3453C128.619 11.1036 129.257 10.9827 129.994 10.9827H135.346V12.079L133.939 12.3207V18.9935L135.346 19.2352V20.3229H130.831V19.2352L132.238 18.9935V16.6973H129.934L127.724 20.3229H125.436ZM129.821 15.3593H132.238V12.3035H129.994C129.378 12.3035 128.912 12.4588 128.596 12.7696C128.279 13.0746 128.121 13.4372 128.121 13.8573C128.121 14.2716 128.262 14.6256 128.544 14.919C128.832 15.2125 129.257 15.3593 129.821 15.3593Z" fill="white"/>
<path d="M113.839 20.3229V19.2352L115.246 18.9935V12.3207L113.839 12.079V10.9827H118.354V12.079L116.947 12.3207V15.0226H121.099V12.3207L119.692 12.079V10.9827H121.099H122.808H124.215V12.079L122.808 12.3207V18.9935L124.215 19.2352V20.3229H119.692V19.2352L121.099 18.9935V16.352H116.947V18.9935L118.354 19.2352V20.3229H113.839Z" fill="white"/>
<path d="M102.855 23.9139V22.8176L104.176 22.5759V12.3207L102.769 12.079V10.9827H105.635L105.79 12.1222C106.101 11.6963 106.478 11.3712 106.921 11.1467C107.37 10.9223 107.888 10.8101 108.475 10.8101C109.246 10.8101 109.905 11.0201 110.451 11.4402C110.998 11.8546 111.415 12.4387 111.703 13.1926C111.991 13.9407 112.135 14.8183 112.135 15.8254V16.0067C112.135 16.9045 111.988 17.69 111.695 18.3633C111.407 19.0366 110.992 19.5632 110.451 19.943C109.911 20.3171 109.26 20.5041 108.501 20.5041C107.925 20.5041 107.419 20.4092 106.981 20.2192C106.55 20.0236 106.181 19.7358 105.876 19.356V22.5759L107.361 22.8176V23.9139H102.855ZM107.974 19.1747C108.78 19.1747 109.39 18.8812 109.804 18.2942C110.218 17.7073 110.426 16.9447 110.426 16.0067V15.8254C110.426 15.1118 110.333 14.4845 110.149 13.9436C109.965 13.3969 109.689 12.9681 109.321 12.6574C108.958 12.3466 108.503 12.1912 107.957 12.1912C107.473 12.1912 107.059 12.3006 106.714 12.5193C106.368 12.7379 106.089 13.0372 105.876 13.417V17.9662C106.089 18.3518 106.366 18.651 106.705 18.864C107.05 19.0712 107.473 19.1747 107.974 19.1747Z" fill="white"/>
<path d="M98.3953 20.5041C97.5321 20.5041 96.7811 20.3084 96.1423 19.9171C95.5035 19.52 95.0086 18.9704 94.6575 18.2684C94.3122 17.5663 94.1396 16.7548 94.1396 15.834V15.4542C94.1396 14.568 94.3209 13.7767 94.6834 13.0803C95.0517 12.3783 95.538 11.8258 96.1423 11.423C96.7523 11.0144 97.417 10.8101 98.1363 10.8101C98.9765 10.8101 99.6786 10.9827 100.243 11.328C100.812 11.6733 101.241 12.1596 101.529 12.7869C101.817 13.4084 101.96 14.1421 101.96 14.9881V16.0499H95.9006L95.8747 16.093C95.8862 16.6915 95.9898 17.2238 96.1854 17.69C96.3869 18.1504 96.6746 18.5129 97.0487 18.7777C97.4227 19.0424 97.8716 19.1747 98.3953 19.1747C98.9708 19.1747 99.4743 19.0942 99.906 18.933C100.343 18.7661 100.72 18.5388 101.037 18.2511L101.701 19.356C101.368 19.6783 100.925 19.9516 100.372 20.1761C99.8254 20.3948 99.1665 20.5041 98.3953 20.5041ZM95.9524 14.7205H100.26V14.496C100.26 14.0472 100.179 13.6472 100.018 13.2962C99.8628 12.9394 99.6268 12.6602 99.3103 12.4588C98.9996 12.2517 98.6082 12.1481 98.1363 12.1481C97.7565 12.1481 97.4112 12.2603 97.1005 12.4847C96.7897 12.7034 96.5336 13.0027 96.3322 13.3825C96.1308 13.7623 95.9984 14.1939 95.9351 14.6773L95.9524 14.7205Z" fill="white"/>
<path d="M86.9435 20.3229V19.2352L88.3506 18.9935V12.3035H86.3824L86.253 13.7623H84.8027V10.9827H93.6422V13.7623H92.1833L92.0539 12.3035H90.0512V18.9935L91.4582 19.2352V20.3229H86.9435Z" fill="white"/>
<path d="M79.9467 20.5041C79.1007 20.5041 78.3641 20.3084 77.7368 19.9171C77.1095 19.52 76.6232 18.9704 76.2779 18.2684C75.9327 17.5663 75.76 16.7548 75.76 15.834V15.4715C75.76 14.5852 75.9269 13.7911 76.2607 13.089C76.5945 12.3869 77.075 11.8315 77.7023 11.423C78.3296 11.0144 79.0777 10.8101 79.9467 10.8101C80.7006 10.8101 81.3595 10.9338 81.9235 11.1812C82.4932 11.4287 82.9708 11.7682 83.3564 12.1999L83.3996 14.4442H82.0702L81.7767 12.8127C81.581 12.6113 81.3365 12.4502 81.043 12.3293C80.7495 12.2085 80.4042 12.1481 80.0071 12.1481C79.5007 12.1481 79.0547 12.2977 78.6691 12.5969C78.2893 12.8962 77.9929 13.2962 77.78 13.7968C77.567 14.2975 77.4606 14.8557 77.4606 15.4715V15.834C77.4606 16.5131 77.5584 17.103 77.7541 17.6037C77.9555 18.1043 78.2404 18.4928 78.6087 18.769C78.9827 19.0395 79.4259 19.1747 79.938 19.1747C80.5135 19.1747 80.9912 19.0165 81.371 18.7C81.7508 18.3834 81.9839 17.949 82.0702 17.3965H83.5981L83.6154 17.4483C83.5866 17.9835 83.4284 18.4842 83.1406 18.9503C82.8529 19.4164 82.4414 19.7934 81.9062 20.0811C81.3767 20.3631 80.7236 20.5041 79.9467 20.5041Z" fill="white"/>
<path d="M64.0514 20.3228V19.2352L65.4585 18.9935V12.3207L64.0514 12.079V10.9827H67.1504H68.5574V12.079L67.1504 12.3207V17.595L67.2022 17.6123L71.3198 10.9827H73.0203H74.4274V12.079L73.0203 12.3207V18.9935L74.4274 19.2352V20.3228H69.9127V19.2352L71.3198 18.9935V13.7105L71.268 13.6932L67.1504 20.3228H64.0514ZM69.2912 9.34257C68.4567 9.34257 67.8007 9.11813 67.323 8.66926C66.8454 8.21462 66.6065 7.62763 66.6065 6.90827L66.6238 6.85648H67.9187C67.9187 7.27083 68.028 7.60748 68.2467 7.86645C68.4711 8.12542 68.8193 8.25491 69.2912 8.25491C69.7516 8.25491 70.094 8.12542 70.3184 7.86645C70.5429 7.60748 70.6551 7.27083 70.6551 6.85648H71.9586L71.9758 6.90827C71.9701 7.62763 71.7284 8.21462 71.2507 8.66926C70.7788 9.11813 70.1256 9.34257 69.2912 9.34257Z" fill="white"/>
<path d="M57.2791 20.5041C56.3065 20.5041 55.567 20.2682 55.0606 19.7963C54.5542 19.3186 54.301 18.6482 54.301 17.7849C54.301 16.8987 54.6635 16.188 55.3886 15.6528C56.1137 15.1118 57.1208 14.8413 58.4099 14.8413H60.076V13.9263C60.076 13.3623 59.9033 12.925 59.558 12.6142C59.2185 12.3034 58.738 12.1481 58.1164 12.1481C57.7251 12.1481 57.3856 12.197 57.0978 12.2948C56.8101 12.3869 56.5482 12.5164 56.3123 12.6833L56.131 13.9867H54.8189V11.8459C55.239 11.5064 55.7282 11.2503 56.2864 11.0777C56.8446 10.8993 57.4633 10.8101 58.1423 10.8101C59.276 10.8101 60.1652 11.0805 60.8097 11.6215C61.4542 12.1624 61.7765 12.9365 61.7765 13.9436V18.441C61.7765 18.5618 61.7765 18.6798 61.7765 18.7949C61.7823 18.91 61.7909 19.0251 61.8024 19.1402L62.7088 19.2352V20.3228H60.2659C60.2141 20.0696 60.1738 19.8423 60.145 19.6409C60.1162 19.4395 60.0961 19.238 60.0846 19.0366C59.7566 19.4567 59.3451 19.8078 58.8502 20.0898C58.361 20.366 57.8373 20.5041 57.2791 20.5041ZM57.5294 19.0798C58.0934 19.0798 58.6085 18.9445 59.0746 18.6741C59.5408 18.4036 59.8745 18.0784 60.076 17.6986V16.0067H58.3495C57.5668 16.0067 56.9798 16.1937 56.5885 16.5678C56.1972 16.9419 56.0015 17.3591 56.0015 17.8195C56.0015 18.2281 56.1281 18.5417 56.3813 18.7604C56.6346 18.9733 57.0173 19.0798 57.5294 19.0798Z" fill="white"/>
<path d="M37.4983 20.3228V19.2351L38.9054 18.9934V9.09222L37.4983 8.85051V7.75421H38.9054H41.1756L45.2242 17.2929H45.276L49.195 7.75421H52.9846V8.85051L51.5775 9.09222V18.9934L52.9846 19.2351V20.3228H48.4699V19.2351L49.9547 18.9934V15.3506V10.0763L49.9115 10.0677L45.8284 19.8739H44.6976L40.4764 10.0849L40.4333 10.0936L40.4937 15.3506V18.9934L42.013 19.2351V20.3228H37.4983Z" fill="white"/>
<g clip-path="url(#clip0_10216_802)">
<path d="M5.19991 12.9759C5.90552 14.2575 6.63409 15.8461 7.19506 17.7205C7.56317 18.9505 7.79658 20.0961 7.94276 21.1222C9.19939 19.8908 10.6948 18.103 11.7838 15.706C14.6208 9.45947 12.6203 3.64354 11.8833 1.78571C13.5471 2.48351 16.1201 3.8173 18.3678 6.26167C22.7736 11.0563 22.6902 16.603 22.6068 18.1676C23.1785 17.5858 23.9009 16.7253 24.5017 15.5721C25.1706 14.2864 25.4361 13.1202 25.5486 12.3042C30.4573 18.5117 31.019 26.081 27.0953 31.1477C26.6759 31.6889 22.1568 37.3297 15.0754 36.877C10.3076 36.5728 7.33512 33.695 6.84608 33.2067C4.18894 30.5542 3.27362 26.9856 3.65398 24.1209C3.98918 21.5975 5.19225 20.6648 5.45016 17.228C5.58256 15.4485 5.38971 13.967 5.19991 12.9759Z" fill="#F01E01"/>
<path d="M15.8737 8.85782C16.0252 11.84 15.3678 13.9821 14.7762 15.3482C13.2089 18.9656 10.776 20.2067 9.34028 24.2102C8.67982 26.0508 8.52676 27.6497 8.49155 28.6415C8.34232 28.1964 8.09972 27.6319 7.69411 27.0302C7.17906 26.2665 6.59511 25.7259 6.14818 25.3743C6.05328 26.7562 6.05941 29.8716 8.14258 32.8042C8.75482 33.6655 9.76043 35.0446 11.7342 35.9821C12.9426 36.5563 14.0737 36.7555 14.8267 36.8324C17.1563 36.8324 19.0413 36.4732 19.564 36.34C21.6992 35.796 23.0538 33.4272 23.8528 32.0302C26.1961 27.9299 26.3171 23.7575 26.0974 21.1222C25.8242 22.1442 25.3834 23.3949 24.651 24.7479C24.0724 25.818 23.4395 26.7122 22.8563 27.4334C22.6773 26.5934 22.3413 25.3688 21.6586 23.9869C20.614 21.8702 19.8058 21.5089 18.866 19.6895C18.0854 18.1799 18.2408 17.6518 17.4693 14.408C17.1609 13.1112 16.6597 11.1937 15.8737 8.85782Z" fill="#F35B00"/>
<path d="M11.6346 23.6731C11.6209 24.3681 11.5543 25.4018 11.2849 26.627C10.8402 28.6504 10.3321 28.9705 10.088 30.3867C9.94714 31.2047 9.48872 33.8688 11.2849 35.5343C12.6234 36.7754 14.5428 36.886 15.5737 36.9217C16.4255 36.9512 18.7122 36.9856 20.3124 35.7136C22.8555 33.6923 22.3336 29.3221 20.8604 26.6724C19.9497 25.0323 19.1155 24.8475 18.0173 22.7335C17.0767 20.9203 16.7484 19.2438 16.6214 18.0783C16.3688 18.7452 16.003 19.8942 15.9234 21.3455C15.7704 24.1353 16.8127 25.5082 16.0229 27.4334C15.7635 28.0652 15.2423 28.9121 14.0775 29.7603C14.1035 29.0872 14.0538 28.1648 13.7285 27.1195C13.2089 25.4492 12.2453 24.2953 11.6346 23.6731Z" fill="#FDB800"/>
</g>
<defs>
<clipPath id="clip0_10216_802">
<rect width="26.7857" height="35.7143" fill="white" transform="translate(3.57141 1.78571)"/>
</clipPath>
</defs>
  </symbol>
</svg>
