<svg width="24" height="24" viewBox="0 0 24 24" fill="none" xmlns="http://www.w3.org/2000/svg">
<path d="M1.85059 18.4463V5.55376C1.85059 5.08376 2.01734 4.68143 2.35084 4.34676C2.6845 4.01193 3.0855 3.84451 3.55384 3.84451H20.4463C20.9163 3.84451 21.3187 4.01193 21.6533 4.34676C21.9882 4.68143 22.1556 5.08376 22.1556 5.55376V18.4463C22.1556 18.9146 21.9882 19.3156 21.6533 19.6493C21.3187 19.9828 20.9163 20.1495 20.4463 20.1495H3.55384C3.0855 20.1495 2.6845 19.9828 2.35084 19.6493C2.01734 19.3156 1.85059 18.9146 1.85059 18.4463ZM20.4463 11.25V5.55376H3.55384V11.25H20.4463ZM9.58709 18.4463H20.4463V12.75H9.58709V18.4463ZM3.55384 18.4463H8.08709V12.75H3.55384V18.4463Z" fill="white"/>
</svg>
